<svg width="45" height="42" viewBox="0 0 45 42" fill="none" xmlns="http://www.w3.org/2000/svg">
<path d="M22.3448 35.3941C30.8615 35.3941 37.7657 28.9054 37.7657 20.9012C37.7657 12.8969 30.8615 6.4082 22.3448 6.4082C13.828 6.4082 6.92383 12.8969 6.92383 20.9012C6.92383 28.9054 13.828 35.3941 22.3448 35.3941Z" fill="#E63A28"/>
<path d="M4.5118 11.6337C4.82651 11.7323 5.03632 11.9294 5.24613 12.1266C5.45594 12.3238 5.66575 12.521 5.77065 12.7182C5.87556 12.9154 5.98046 13.2111 5.98046 13.5069C5.98046 13.8027 5.87556 14.0985 5.77065 14.3942L5.24613 15.5773L1.25977 13.9013C1.36467 13.6055 1.46957 13.4083 1.46957 13.2111C1.57448 13.0139 1.57448 12.9154 1.67938 12.7182C1.88919 12.3238 2.099 12.028 2.30881 11.8308C2.51862 11.6337 2.72843 11.4365 3.04314 11.4365C3.25295 11.3379 3.56766 11.3379 3.88237 11.3379C3.98728 11.4365 4.19709 11.5351 4.5118 11.6337ZM4.09218 12.4224C3.88237 12.3238 3.67256 12.3238 3.56766 12.2252C3.35785 12.2252 3.25295 12.2252 3.04314 12.2252C2.83333 12.2252 2.72843 12.3238 2.62352 12.4224C2.51862 12.521 2.41371 12.7182 2.30881 12.9154C2.2039 13.1125 2.099 13.2111 2.099 13.3097L4.93142 14.4928L5.03632 14.197C5.14123 13.9013 5.24613 13.7041 5.24613 13.6055C5.24613 13.4083 5.24613 13.3097 5.14123 13.1125C5.03632 13.0139 4.93142 12.8168 4.72161 12.7182C4.5118 12.6196 4.30199 12.521 4.09218 12.4224Z" fill="#E63A28"/>
<path d="M7.76355 11.0421L7.23903 11.7322L3.56738 9.366C3.56738 9.366 3.56738 9.26741 3.67229 9.26741V9.16882V9.07023L3.77719 8.97164C3.77719 8.97164 3.8821 8.87305 3.987 8.87305C4.0919 8.87305 4.0919 8.87305 4.19681 8.87305C4.30171 8.87305 4.40662 8.87305 4.40662 8.97164L7.76355 11.0421Z" fill="#E63A28"/>
<path d="M9.96566 8.67613L9.23133 9.36627L5.03516 7.39444C5.03516 7.39444 5.14006 7.29585 5.14006 7.19725C5.14006 7.19725 5.24496 7.09866 5.34987 7.09866C5.45477 7.00007 5.55968 6.90148 5.76949 6.90148C5.87439 6.90148 6.0842 6.90148 6.1891 7.00007L9.02152 8.38035L7.34305 5.71838C7.34305 5.61979 7.23815 5.5212 7.34305 5.32401C7.34305 5.22542 7.34305 5.12683 7.44796 5.02824C7.44796 5.02824 7.55286 4.92965 7.65776 4.92965C7.76267 4.92965 7.76267 4.83105 7.86757 4.83105L9.96566 8.67613Z" fill="#E63A28"/>
<path d="M12.4839 6.80329L11.7496 7.29625L9.12695 3.84554C9.12695 3.84554 9.23186 3.84554 9.23186 3.74695C9.23186 3.74695 9.23186 3.74695 9.33676 3.64836C9.33676 3.64836 9.33676 3.64836 9.44167 3.54976C9.44167 3.54976 9.54657 3.45117 9.65147 3.45117C9.75638 3.45117 9.75638 3.45117 9.86128 3.45117C9.96619 3.45117 9.96619 3.45117 10.0711 3.45117C10.176 3.45117 10.176 3.54976 10.2809 3.64836L12.4839 6.80329Z" fill="#E63A28"/>
<path d="M15.3166 4.63397C15.4215 4.63397 15.5264 4.53538 15.5264 4.53538C15.6313 4.53538 15.6313 4.53538 15.7362 4.53538C15.8411 4.53538 15.8411 4.63397 15.8411 4.63397L15.946 4.73256V4.83115V4.92975L13.4283 6.21144L11.54 2.36636L14.0577 1.28186C14.0577 1.28186 14.0577 1.38045 14.1626 1.38045C14.1626 1.38045 14.1626 1.47904 14.2676 1.47904C14.3725 1.57763 14.3725 1.67622 14.2676 1.77481C14.2676 1.87341 14.0577 1.972 13.9528 2.07059L12.7989 2.56355L13.2185 3.45087L14.4774 2.85932L14.7921 3.45087L13.5332 4.04242L14.0577 5.22552L15.3166 4.63397ZM12.694 1.38045L12.5891 1.47904L12.4842 1.57763C12.3793 1.57763 12.3793 1.57763 12.2744 1.57763C12.1695 1.57763 12.0646 1.57763 12.0646 1.47904L12.4842 0.690306C12.4842 0.591714 12.5891 0.591714 12.5891 0.493123L12.694 0.394531C12.7989 0.394531 12.9038 0.394531 13.0087 0.394531C13.1136 0.394531 13.2185 0.493123 13.3234 0.493123L12.694 1.38045Z" fill="#E63A28"/>
<path d="M19.1983 1.28162C19.1983 1.47881 19.3032 1.5774 19.1983 1.77458C19.1983 1.87317 19.1983 2.07036 19.0934 2.16895C18.9885 2.26754 18.9885 2.36613 18.8836 2.46472C18.7787 2.56331 18.6738 2.6619 18.5689 2.6619L20.0376 4.14078C20.0376 4.14078 20.0376 4.14078 19.9327 4.23937C19.8277 4.23937 19.7228 4.23937 19.6179 4.23937C19.4081 4.23937 19.3032 4.23937 19.1983 4.23937C19.0934 4.23937 18.9885 4.14078 18.7787 3.9436L17.7297 2.95768L17.4149 3.05627L17.8346 4.63374L16.8904 4.83092L15.9463 0.788664C16.1561 0.690072 16.3659 0.690072 16.5757 0.591481C16.7855 0.492889 16.9953 0.492889 17.1002 0.492889C17.7297 0.394297 18.2542 0.394297 18.5689 0.492889C18.8836 0.591481 19.0934 0.887255 19.1983 1.28162ZM18.3591 1.5774C18.2542 1.28162 18.1493 1.18303 18.0444 1.08444C17.8346 0.985847 17.6248 0.985847 17.4149 1.08444C17.31 1.08444 17.31 1.08444 17.2051 1.08444C17.1002 1.08444 17.1002 1.08444 17.1002 1.08444L17.4149 2.46472L17.7297 2.36613C17.9395 2.26754 18.1493 2.16895 18.2542 2.07035C18.3591 1.97176 18.3591 1.77458 18.3591 1.5774Z" fill="#E63A28"/>
<path d="M21.8208 0.59155H20.457C20.457 0.492958 20.457 0.492958 20.457 0.492958V0.394367C20.457 0.295775 20.457 0.197183 20.5619 0.0985916C20.6668 2.20369e-08 20.7717 0 20.9816 0H24.1287C24.1287 0.0985916 24.1287 0.197183 24.1287 0.295775C24.1287 0.394367 24.1287 0.394367 24.0238 0.394367C24.0238 0.394367 23.9189 0.492958 23.814 0.492958C23.7091 0.492958 23.7091 0.492958 23.6042 0.492958H22.7649V3.94366H21.8208V0.59155Z" fill="#E63A28"/>
<path d="M27.3806 4.04234C27.4855 4.04234 27.5904 4.14093 27.5904 4.14093C27.6953 4.14093 27.6953 4.23952 27.6953 4.23952C27.6953 4.23952 27.6953 4.33811 27.8002 4.43671C27.8002 4.5353 27.8002 4.5353 27.8002 4.63389V4.73248V4.83107L24.9678 4.23952L25.9119 0.197266L28.6394 0.788815V0.887407V0.985999C28.6394 1.08459 28.5345 1.18318 28.4296 1.28177C28.3247 1.28177 28.1149 1.28177 27.9051 1.28177L26.6462 0.985999L26.4364 1.97192L27.8002 2.26769L27.6953 2.95783L26.2266 2.66206L25.9119 3.74656L27.3806 4.04234Z" fill="#E63A28"/>
<path d="M31.0525 2.36665L29.7936 1.7751V1.67651V1.57792C29.7936 1.47932 29.8985 1.38073 30.0034 1.38073C30.1084 1.28214 30.3182 1.38073 30.4231 1.38073L33.2555 2.66242C33.2555 2.76102 33.1506 2.85961 33.1506 2.9582L33.0457 3.05679L32.9408 3.15538C32.8359 3.15538 32.8359 3.15538 32.731 3.15538C32.6261 3.15538 32.6261 3.15538 32.5212 3.05679L31.7868 2.76102L30.2133 5.91595L29.374 5.52158L31.0525 2.36665Z" fill="#E63A28"/>
<path d="M34.514 7.68968C34.6189 7.78827 34.6189 7.78827 34.7238 7.88686C34.7238 7.98545 34.8287 7.98545 34.8287 8.08404C34.8287 8.18263 34.8287 8.18263 34.8287 8.28123C34.8287 8.37982 34.8287 8.37982 34.7238 8.37982L34.6189 8.47841C34.6189 8.47841 34.6189 8.47841 34.514 8.577L32.2061 6.90094L34.9336 3.54883L37.1366 5.12629C37.1366 5.12629 37.1366 5.22489 37.0317 5.22489C37.0317 5.22489 37.0317 5.32348 36.9267 5.32348C36.8218 5.42207 36.7169 5.52066 36.612 5.52066C36.5071 5.52066 36.4022 5.52066 36.1924 5.32348L35.1434 4.53474L34.6189 5.42207L35.6679 6.2108L35.2483 6.70376L34.0943 5.91503L33.36 6.80235L34.514 7.68968Z" fill="#E63A28"/>
<path d="M3.67165 25.9294C3.46184 25.9294 3.35694 25.9294 3.14713 25.9294C3.04222 25.9294 2.83242 25.8308 2.72751 25.8308C2.62261 25.7322 2.5177 25.7322 2.4128 25.6337C2.30789 25.5351 2.20299 25.4365 2.20299 25.3379L0.629426 26.7182C0.629426 26.6196 0.524522 26.6196 0.524522 26.521C0.524522 26.4224 0.419617 26.3238 0.419617 26.3238C0.419617 26.1266 0.419617 26.028 0.419617 25.9294C0.419617 25.8308 0.524522 25.7322 0.73433 25.5351L1.88828 24.6477L1.78337 24.352L0.104904 24.6477L0 23.7604L4.30108 22.9717C4.40598 23.1689 4.40598 23.366 4.51089 23.5632C4.51089 23.7604 4.61579 23.9576 4.61579 24.0562C4.72069 24.6477 4.72069 25.1407 4.61579 25.4365C4.40598 25.6337 4.19617 25.8308 3.67165 25.9294ZM3.46184 25.1407C3.77656 25.0421 3.88146 24.9435 3.98636 24.8449C4.09127 24.6477 4.09127 24.4506 3.98636 24.2534C3.98636 24.1548 3.98636 24.1548 3.98636 24.0562C3.98636 23.9576 3.98636 23.9576 3.98636 23.9576L2.5177 24.2534L2.62261 24.5491C2.62261 24.7463 2.72751 24.9435 2.93732 25.0421C2.93732 25.1407 3.14713 25.1407 3.46184 25.1407Z" fill="#E63A28"/>
<path d="M2.72843 29.8736C2.72843 29.9722 2.83333 30.0708 2.83333 30.0708C2.83333 30.1694 2.83333 30.1694 2.83333 30.268C2.83333 30.3666 2.72843 30.3666 2.72843 30.3666L2.62352 30.4651H2.51862H2.41371L1.25977 28.0004L5.24613 26.5215L6.29517 28.8877C6.29517 28.8877 6.29517 28.8877 6.19027 28.8877H6.08536C5.98046 28.9863 5.77065 28.9863 5.66575 28.8877C5.56084 28.8877 5.45594 28.6905 5.35103 28.5919L4.82651 27.5074L3.77747 27.9018L4.30199 29.0849L3.67256 29.3806L3.14804 28.1975L1.9941 28.6905L2.72843 29.8736Z" fill="#E63A28"/>
<path d="M3.88179 31.3529C3.88179 31.4514 3.88179 31.55 3.88179 31.55C3.88179 31.6486 3.88179 31.7472 3.88179 31.8458C3.88179 31.9444 3.88179 32.043 3.9867 32.1416C3.9867 32.2402 4.0916 32.3388 4.1965 32.4374C4.30141 32.536 4.30141 32.536 4.40631 32.6345C4.51122 32.7331 4.51122 32.7331 4.61612 32.7331C4.72103 32.7331 4.82593 32.7331 4.82593 32.7331C4.93083 32.7331 5.03574 32.7331 5.14064 32.6345C5.14064 32.6345 5.24555 32.536 5.24555 32.4374C5.24555 32.3388 5.35045 32.2402 5.35045 32.1416C5.35045 32.043 5.35045 31.9444 5.35045 31.8458C5.24555 31.8458 5.24555 31.7472 5.24555 31.55C5.24555 31.4514 5.14064 31.2543 5.14064 31.1557C5.14064 31.0571 5.14064 30.8599 5.14064 30.7613C5.14064 30.6627 5.24555 30.4655 5.24555 30.3669C5.35045 30.2683 5.45536 30.0712 5.66516 29.9726C5.87497 29.874 5.97988 29.7754 6.18969 29.7754C6.39949 29.7754 6.5044 29.7754 6.71421 29.874C6.92402 29.9726 7.02892 29.9726 7.23873 30.1698C7.34363 30.2683 7.55344 30.4655 7.65835 30.5641C7.76325 30.6627 7.76325 30.7613 7.86815 30.8599C7.97306 30.9585 7.97306 31.0571 7.97306 31.1557C7.97306 31.2543 7.97306 31.3529 8.07796 31.3529C8.07796 31.4514 8.07796 31.4514 8.07796 31.55C8.07796 31.6486 8.07796 31.7472 7.97306 31.8458C7.97306 31.8458 7.86815 31.8458 7.76325 31.9444C7.65835 31.9444 7.55344 31.9444 7.44854 31.9444C7.44854 31.8458 7.44854 31.6486 7.44854 31.4514C7.44854 31.2543 7.34363 31.1557 7.23873 30.9585C7.23873 30.8599 7.13382 30.8599 7.02892 30.7613C6.92402 30.6627 6.92402 30.6627 6.81911 30.6627C6.71421 30.6627 6.71421 30.5641 6.6093 30.5641C6.5044 30.5641 6.39949 30.5641 6.39949 30.6627C6.29459 30.7613 6.29459 30.7613 6.18969 30.8599C6.18969 30.9585 6.18969 31.0571 6.18969 31.0571C6.18969 31.1557 6.18969 31.2543 6.18969 31.3529C6.18969 31.4514 6.18969 31.55 6.29459 31.6486C6.29459 31.7472 6.39949 31.9444 6.39949 32.043C6.39949 32.1416 6.39949 32.3388 6.39949 32.4374C6.39949 32.536 6.29459 32.7331 6.29459 32.8317C6.18969 32.9303 6.08478 33.1275 5.87497 33.2261C5.66516 33.3247 5.45536 33.4233 5.24555 33.4233C5.03574 33.4233 4.82593 33.4233 4.72103 33.4233C4.51122 33.4233 4.40631 33.3247 4.1965 33.1275C3.9867 33.0289 3.88179 32.8317 3.77689 32.6345C3.56708 32.4374 3.46217 32.1416 3.46217 31.9444C3.14746 31.9444 3.14746 31.8458 3.14746 31.7472C3.14746 31.6486 3.14746 31.6486 3.14746 31.55C3.14746 31.4514 3.25237 31.4514 3.25237 31.4514C3.35727 31.4514 3.35727 31.3529 3.56708 31.3529C3.67198 31.3529 3.77689 31.3529 3.88179 31.3529Z" fill="#E63A28"/>
<path d="M10.0716 35.0984C9.86178 35.2956 9.65197 35.3942 9.44216 35.4928C9.23235 35.5914 9.02254 35.5914 8.81273 35.5914C8.60292 35.5914 8.39312 35.4928 8.18331 35.3942C7.9735 35.2956 7.76369 35.197 7.65879 34.9998L7.44898 34.8026L6.39993 35.7886L5.77051 35.197L8.81273 32.2393C9.02254 32.3378 9.12745 32.4364 9.33725 32.6336C9.54706 32.7322 9.65197 32.8308 9.75687 33.028C10.1765 33.4224 10.4912 33.8167 10.5961 34.2111C10.4912 34.4083 10.3863 34.8026 10.0716 35.0984ZM9.44216 34.5069C9.65197 34.3097 9.75687 34.1125 9.65197 33.9153C9.65197 33.7181 9.54706 33.5209 9.33725 33.4224C9.23235 33.3238 9.12745 33.2252 9.02254 33.2252L7.86859 34.3097L8.0784 34.4083C8.28821 34.6055 8.49802 34.704 8.70783 34.8026C8.91764 34.8026 9.23235 34.704 9.44216 34.5069Z" fill="#E63A28"/>
<path d="M13.7426 38.1549C13.5328 38.4507 13.4279 38.6479 13.2181 38.8451C13.0083 39.0423 12.7985 39.1408 12.4838 39.2394C12.274 39.338 11.9593 39.338 11.6445 39.338C11.3298 39.338 11.0151 39.2394 10.7004 39.0423C10.3857 38.8451 10.1759 38.6479 9.96608 38.4507C9.86118 38.2535 9.75627 37.9577 9.65137 37.7606C9.65137 37.4648 9.65137 37.2676 9.75627 36.9718C9.86118 36.6761 9.96608 36.4789 10.071 36.1831C10.2808 35.8873 10.3857 35.6901 10.5955 35.493C10.8053 35.2958 11.0151 35.1972 11.3298 35.0986C11.5396 35 11.8544 35 12.1691 35C12.4838 35 12.7985 35.0986 13.0083 35.2958C13.323 35.493 13.5328 35.6901 13.7426 35.8873C13.8475 36.0845 13.9524 36.3803 14.0573 36.5775C14.0573 36.7746 14.0573 37.0704 13.9524 37.3662C14.0573 37.662 13.9524 37.9577 13.7426 38.1549ZM12.9034 37.7606C13.0083 37.5634 13.1132 37.4648 13.1132 37.2676C13.2181 37.0704 13.2181 36.9718 13.2181 36.7746C13.2181 36.5775 13.2181 36.4789 13.1132 36.3803C13.0083 36.2817 12.9034 36.1831 12.7985 36.0845C12.5887 35.9859 12.4838 35.9859 12.274 35.9859C12.0642 35.9859 11.9593 35.9859 11.8544 36.0845C11.7495 36.1831 11.5396 36.2817 11.4347 36.3803C11.3298 36.4789 11.2249 36.6761 11.12 36.8732C11.0151 37.0704 10.9102 37.2676 10.9102 37.3662C10.8053 37.5634 10.8053 37.662 10.8053 37.8592C10.8053 38.0563 10.8053 38.1549 10.9102 38.3521C11.0151 38.4507 11.12 38.6479 11.3298 38.7465C11.5396 38.8451 11.6445 38.8451 11.8544 38.8451C12.0642 38.8451 12.1691 38.7465 12.274 38.7465C12.3789 38.6479 12.5887 38.5493 12.6936 38.4507C12.6936 38.0563 12.7985 37.9577 12.9034 37.7606Z" fill="#E63A28"/>
<path d="M17.3094 40.1275L18.1486 37.3669H18.2535H18.3584H18.4633C18.5682 37.3669 18.5682 37.3669 18.6731 37.4655C18.7781 37.4655 18.7781 37.5641 18.883 37.5641C18.883 37.5641 18.9879 37.6627 18.9879 37.7613C18.9879 37.8599 18.9879 37.9584 18.9879 38.057L17.8339 41.6063L17.0996 41.4092L16.0505 38.2542L15.2113 40.9162L14.3721 40.719L15.6309 36.6768C15.6309 36.6768 15.7358 36.6768 15.8407 36.6768C15.9456 36.6768 15.9456 36.6768 16.0505 36.6768C16.1554 36.6768 16.2603 36.7753 16.3653 36.8739C16.4702 36.9725 16.4702 37.0711 16.4702 37.1697L17.3094 40.1275Z" fill="#E63A28"/>
<path d="M19.7227 40.9155C19.8276 40.9155 19.8276 41.0141 19.9325 41.1127C20.0374 41.2113 20.0374 41.2113 20.1423 41.2113C20.2472 41.2113 20.3521 41.3099 20.457 41.3099C20.5619 41.3099 20.6668 41.4085 20.7717 41.4085C20.8766 41.4085 20.9815 41.4085 21.0865 41.4085C21.1914 41.4085 21.2963 41.4085 21.2963 41.3099C21.4012 41.3099 21.4012 41.2113 21.5061 41.1127C21.5061 41.0141 21.611 40.9155 21.611 40.817C21.611 40.7184 21.611 40.6198 21.5061 40.5212C21.5061 40.4226 21.4012 40.4226 21.2963 40.324C21.1914 40.2254 21.0865 40.2254 20.9815 40.1268C20.8766 40.1268 20.7717 40.0282 20.6668 40.0282C20.5619 39.9296 20.3521 39.9296 20.2472 39.831C20.1423 39.831 20.0374 39.7324 19.9325 39.7324C19.8276 39.6339 19.7227 39.5353 19.7227 39.3381C19.6178 39.2395 19.6178 39.0423 19.6178 38.8451C19.6178 38.6479 19.7227 38.4508 19.8276 38.3522C19.9325 38.155 20.0374 38.0564 20.2472 37.9578C20.3521 37.8592 20.5619 37.7606 20.7717 37.7606C20.9815 37.7606 21.1914 37.662 21.4012 37.7606C21.5061 37.7606 21.7159 37.7606 21.8208 37.8592C21.9257 37.8592 22.0306 37.9578 22.1355 37.9578C22.2404 37.9578 22.3453 38.0564 22.3453 38.0564C22.4502 38.0564 22.4502 38.155 22.4502 38.155C22.5551 38.2536 22.66 38.3522 22.66 38.4508C22.66 38.5493 22.66 38.5493 22.5551 38.6479C22.5551 38.7465 22.4502 38.8451 22.3453 38.8451C22.2404 38.7465 22.1355 38.6479 21.9257 38.5493C21.7159 38.4508 21.611 38.4508 21.4012 38.4508C21.2963 38.4508 21.1914 38.4508 21.1914 38.4508C21.0865 38.4508 20.9815 38.4508 20.9815 38.5493C20.8766 38.5493 20.8766 38.6479 20.7717 38.6479C20.7717 38.7465 20.6668 38.7465 20.6668 38.8451C20.6668 38.9437 20.6668 39.0423 20.6668 39.0423C20.6668 39.1409 20.7717 39.1409 20.8766 39.2395C20.9815 39.3381 20.9815 39.3381 21.0865 39.3381C21.1914 39.3381 21.2963 39.4367 21.4012 39.4367C21.5061 39.5353 21.7159 39.5353 21.8208 39.6339C21.9257 39.7324 22.1355 39.7324 22.2404 39.831C22.3453 39.9296 22.4502 40.0282 22.5551 40.2254C22.66 40.324 22.66 40.5212 22.66 40.7184C22.66 40.9155 22.5551 41.1127 22.4502 41.3099C22.3453 41.5071 22.2404 41.6057 22.0306 41.7043C21.9257 41.8029 21.7159 41.9015 21.5061 41.9015C21.2963 41.9015 21.0865 42.0001 20.8766 41.9015C20.5619 41.9015 20.3521 41.8029 20.1423 41.8029C19.9325 41.7043 19.8276 41.7043 19.7227 41.6057L19.6178 41.5071C19.6178 41.5071 19.6178 41.4085 19.6178 41.3099C19.6178 41.2113 19.6178 41.1127 19.7227 41.0141C19.5129 41.1127 19.6178 41.0141 19.7227 40.9155Z" fill="#E63A28"/>
<path d="M26.8551 41.6057L26.3306 40.6198L24.862 40.817L24.6521 41.9015L23.708 42.0001L24.5472 37.7607C24.5472 37.7607 24.6521 37.6621 24.7571 37.6621C24.862 37.6621 24.9669 37.5635 25.0718 37.5635C25.0718 37.5635 25.1767 37.5635 25.2816 37.5635C25.3865 37.5635 25.3865 37.5635 25.4914 37.5635C25.5963 37.5635 25.5963 37.5635 25.7012 37.6621C25.8061 37.6621 25.8061 37.7607 25.8061 37.8593L27.7993 41.4086L26.8551 41.6057ZM25.1767 38.3522L24.862 40.2255L26.0159 40.0283L25.1767 38.3522Z" fill="#E63A28"/>
<path d="M31.786 38.7471C31.8909 38.9443 31.8909 39.1415 31.8909 39.3386C31.8909 39.5358 31.786 39.6344 31.6811 39.8316C31.5762 39.9302 31.3664 40.1274 31.2615 40.226C31.0517 40.3246 30.8419 40.4232 30.5272 40.5217L29.2683 41.0147L27.5898 37.1696C27.7997 37.071 28.0095 36.9724 28.1144 36.8739C28.3242 36.7753 28.4291 36.6767 28.6389 36.6767C28.9536 36.5781 29.2683 36.4795 29.4781 36.4795C29.6879 36.4795 29.8977 36.4795 30.1075 36.4795C30.3174 36.4795 30.4223 36.5781 30.5272 36.6767C30.6321 36.7753 30.737 36.8739 30.737 37.071C30.8419 37.1696 30.8419 37.3668 30.8419 37.4654C30.8419 37.564 30.8419 37.6626 30.8419 37.7612C30.8419 37.8598 30.737 37.9584 30.737 38.057C30.6321 38.1555 30.6321 38.1555 30.5272 38.2541C30.6321 38.2541 30.737 38.2541 30.8419 38.2541C30.9468 38.2541 31.0517 38.2541 31.1566 38.3527C31.2615 38.3527 31.3664 38.4513 31.4713 38.5499C31.5762 38.4513 31.6811 38.5499 31.786 38.7471ZM29.8977 37.3668C29.7928 37.1696 29.6879 37.071 29.583 37.071C29.3732 37.071 29.2683 37.071 28.9536 37.1696C28.8487 37.1696 28.8487 37.2682 28.7438 37.2682C28.7438 37.2682 28.6389 37.2682 28.6389 37.3668L29.0585 38.4513L29.4781 38.2541C29.6879 38.1555 29.7928 38.057 29.8977 37.8598C30.0026 37.7612 30.0026 37.564 29.8977 37.3668ZM30.2125 39.9302C30.3174 39.8316 30.5272 39.8316 30.6321 39.733C30.737 39.6344 30.8419 39.6344 30.8419 39.5358C30.9468 39.4372 30.9468 39.3386 30.9468 39.2401C30.9468 39.1415 30.9468 39.0429 30.8419 38.9443C30.737 38.7471 30.6321 38.6485 30.4223 38.5499C30.2125 38.5499 30.0026 38.5499 29.7928 38.6485L29.3732 38.9443L29.8977 40.1274L30.2125 39.9302Z" fill="#E63A28"/>
<path d="M31.2617 35.5917C31.3666 35.4931 31.3666 35.4931 31.4715 35.4931C31.4715 35.4931 31.4715 35.4931 31.5764 35.3945C31.5764 35.3945 31.6813 35.2959 31.7862 35.2959C31.8911 35.2959 31.8911 35.2959 31.996 35.2959C32.101 35.2959 32.101 35.2959 32.2059 35.2959C32.3108 35.2959 32.3108 35.3945 32.4157 35.4931L34.199 38.0565L35.2481 37.3663C35.353 37.2677 35.4579 37.2677 35.4579 37.2677C35.5628 37.2677 35.5628 37.2677 35.6677 37.2677C35.7726 37.2677 35.7726 37.2677 35.7726 37.3663L35.8775 37.4649L35.9824 37.5635C35.9824 37.6621 35.9824 37.6621 35.9824 37.6621L33.6745 39.0424L31.2617 35.5917Z" fill="#E63A28"/>
<path d="M38.3962 34.7039C38.5011 34.6053 38.5011 34.6053 38.606 34.5067C38.7109 34.5067 38.7109 34.5067 38.8158 34.5067C38.9207 34.5067 38.9207 34.5067 39.0256 34.5067C39.1305 34.5067 39.1305 34.6053 39.1305 34.6053L39.2354 34.7039C39.2354 34.7039 39.2354 34.8025 39.3404 34.8025L37.1374 36.7744L33.9902 33.8166L35.9834 31.9434L36.0883 32.042C36.0883 32.042 36.1932 32.042 36.1932 32.1405C36.2981 32.2391 36.403 32.3377 36.403 32.4363C36.403 32.5349 36.2981 32.6335 36.1932 32.8307L35.2491 33.718L35.9834 34.4081L37.0325 33.5208L37.557 34.0138L36.5079 34.9011L37.3472 35.6898L38.3962 34.7039Z" fill="#E63A28"/>
<path d="M36.8217 30.8592C36.9266 30.7606 37.0315 30.662 37.1364 30.662C37.2413 30.662 37.3462 30.662 37.4511 30.662L39.9688 30.9578L38.5002 28.986C38.3953 28.8874 38.3953 28.7888 38.3953 28.6902C38.3953 28.5916 38.3953 28.493 38.5002 28.3944C38.5002 28.2958 38.6051 28.2958 38.6051 28.1972C38.71 28.0986 38.71 28.0986 38.71 28.0986L42.6963 29.9719L42.2767 30.662L39.6541 29.3803L40.913 31.0564L40.4934 31.6479L38.3953 31.4507L40.7032 33.0282L40.2835 33.7184L36.7168 31.3522C36.7168 31.3522 36.7168 31.2536 36.8217 31.155C36.8217 31.0564 36.8217 30.9578 36.8217 30.8592Z" fill="#E63A28"/>
<path d="M43.431 26.0287C43.431 25.9301 43.5359 25.8315 43.5359 25.8315C43.5359 25.7329 43.6408 25.7329 43.6408 25.7329C43.7457 25.7329 43.7457 25.7329 43.8506 25.7329C43.9555 25.7329 43.9555 25.7329 44.0604 25.7329H44.1653H44.2702L43.431 28.2963L39.1299 27.1132L39.9691 24.6484H40.074H40.1789C40.2838 24.6484 40.3887 24.747 40.4936 24.8456C40.4936 24.9442 40.4936 25.0428 40.4936 25.24L40.074 26.4231L41.1231 26.7189L41.5427 25.4372L42.1721 25.6344L41.7525 26.916L42.9064 27.2118L43.431 26.0287Z" fill="#E63A28"/>
<path d="M43.4313 21.5914L40.3891 21.3942V21.2956V21.197V21.0984C40.3891 20.9998 40.3891 20.9998 40.3891 20.9012C40.3891 20.8027 40.3891 20.8027 40.494 20.7041C40.494 20.7041 40.5989 20.6055 40.7038 20.6055C40.8087 20.6055 40.9136 20.6055 41.0185 20.6055L45.0049 20.9012L44.9 21.5914L41.8577 23.1689L44.7951 23.366L44.6902 24.1548L40.2842 23.859C40.2842 23.859 40.2842 23.7604 40.2842 23.6618C40.2842 23.5632 40.2842 23.5632 40.2842 23.4646C40.2842 23.366 40.2842 23.2674 40.3891 23.1689C40.494 23.0703 40.494 23.0703 40.5989 22.9717L43.4313 21.5914Z" fill="#E63A28"/>
<path d="M40.9133 18.7325L41.1231 20.0142H41.0182H40.9133C40.8084 20.0142 40.7035 20.0142 40.5986 19.9156C40.4937 19.817 40.3888 19.7184 40.3888 19.5212L39.8643 16.6621C39.9692 16.6621 40.0741 16.6621 40.179 16.5635C40.2839 16.5635 40.2839 16.5635 40.3888 16.5635C40.4937 16.5635 40.4937 16.5635 40.5986 16.6621L40.7035 16.7607C40.7035 16.8593 40.8084 16.8593 40.8084 16.9578L40.9133 17.7466L44.585 17.2536L44.6899 18.1409L40.9133 18.7325Z" fill="#E63A28"/>
<path d="M42.2766 12.9157C42.2766 12.8171 42.1717 12.7185 42.1717 12.62C42.1717 12.5214 42.1717 12.5214 42.1717 12.4228C42.1717 12.3242 42.2766 12.3242 42.2766 12.3242L42.3815 12.2256H42.4864H42.5913L43.6403 14.789L39.4441 16.2678L38.5 13.8031C38.5 13.8031 38.6049 13.8031 38.6049 13.7045H38.7098C38.8147 13.6059 39.0245 13.6059 39.1294 13.7045C39.2343 13.7045 39.3392 13.9016 39.4441 14.0988L39.8638 15.2819L40.9128 14.8876L40.3883 13.6059L41.0177 13.4087L41.5422 14.6904L42.6962 14.296L42.2766 12.9157Z" fill="#E63A28"/>
<path d="M38.5 10.6479C38.9055 10.6479 39.2343 10.3389 39.2343 9.95772C39.2343 9.57656 38.9055 9.26758 38.5 9.26758C38.0944 9.26758 37.7656 9.57656 37.7656 9.95772C37.7656 10.3389 38.0944 10.6479 38.5 10.6479Z" fill="#E63A28"/>
<path d="M2.30855 19.6195C2.71411 19.6195 3.04288 19.3106 3.04288 18.9294C3.04288 18.5482 2.71411 18.2393 2.30855 18.2393C1.90299 18.2393 1.57422 18.5482 1.57422 18.9294C1.57422 19.3106 1.90299 19.6195 2.30855 19.6195Z" fill="#E63A28"/>
<path d="M31.9963 20.0143V16.958H30.1081V20.0143H26.9609V21.6904H30.1081V24.6482H31.9963V21.6904H35.1435V20.0143H31.9963Z" fill="white"/>
<path d="M15.422 24.4511C15.3171 24.2539 15.2122 23.9581 15.2122 23.6623V14.8877H11.016V17.2539H11.8553C12.17 17.2539 12.3798 17.3525 12.4847 17.6483C12.5896 17.8454 12.6945 18.1412 12.6945 18.437V23.7609V24.944H12.2749H11.5406H10.9111V27.2116H11.5406H15.0024H16.0514H16.8907V24.944H16.0514C15.7367 24.7469 15.5269 24.6483 15.422 24.4511Z" fill="white"/>
<path d="M26.226 17.9439C26.226 18.4369 26.1211 18.9298 25.8064 19.3242C25.5966 19.7186 25.177 20.1129 24.7574 20.4087C25.2819 20.7045 25.8064 21.0988 26.226 21.5918C26.6456 22.0848 26.8554 22.7749 26.8554 23.5636C26.8554 24.2538 26.7505 24.7467 26.4358 25.2397C26.1211 25.7326 25.8064 26.0284 25.3868 26.3242C24.9672 26.62 24.4426 26.8172 23.9181 27.0143C23.3936 27.1129 22.7642 27.2115 22.1348 27.2115C21.5053 27.2115 20.9808 27.1129 20.3514 27.0143C19.722 26.9157 19.3023 26.62 18.8827 26.3242C18.4631 26.0284 18.0435 25.6341 17.8337 25.2397C17.519 24.7467 17.4141 24.2538 17.4141 23.5636C17.4141 22.7749 17.6239 22.1834 17.9386 21.5918C18.2533 21.0003 18.7778 20.7045 19.3023 20.3101C18.7778 20.0143 18.4631 19.62 18.2533 19.2256C18.0435 18.8312 17.8337 18.4369 17.8337 17.9439C17.8337 17.451 17.9386 16.958 18.1484 16.5636C18.3582 16.1693 18.6729 15.7749 18.9876 15.4791C19.4072 15.1833 19.8269 14.9862 20.3514 14.789C20.8759 14.5918 21.4004 14.5918 22.0299 14.5918C22.6593 14.5918 23.1838 14.6904 23.7083 14.789C24.2328 14.9862 24.6525 15.1833 25.0721 15.4791C25.4917 15.7749 25.7015 16.1693 25.9113 16.5636C26.1211 16.958 26.226 17.451 26.226 17.9439ZM23.6034 23.465C23.6034 23.0707 23.4985 22.6763 23.1838 22.3805C22.8691 22.0848 22.4495 21.8876 22.0299 21.6904C21.6102 21.8876 21.1906 22.0848 20.8759 22.3805C20.5612 22.6763 20.4563 23.0707 20.4563 23.465C20.4563 23.8594 20.5612 24.2538 20.8759 24.451C21.1906 24.6481 21.5053 24.9439 22.0299 24.9439C22.5544 24.9439 22.974 24.8453 23.2887 24.5496C23.4985 24.2538 23.6034 23.958 23.6034 23.465ZM20.771 17.9439C20.771 18.3383 20.8759 18.6341 21.0857 18.8312C21.2955 19.127 21.6102 19.2256 21.9249 19.4228C22.3446 19.3242 22.6593 19.127 22.8691 18.8312C23.0789 18.6341 23.1838 18.2397 23.1838 17.9439C23.1838 17.6481 23.0789 17.3524 22.8691 17.1552C22.6593 16.958 22.3446 16.8594 21.9249 16.8594C21.5053 16.8594 21.1906 16.958 20.9808 17.1552C20.8759 17.3524 20.771 17.6481 20.771 17.9439Z" fill="white"/>
</svg>
