<svg width="54" height="54" viewBox="0 0 54 54" fill="none" xmlns="http://www.w3.org/2000/svg">
<path d="M15.0075 8.4375H36.7425C37.9462 8.4375 38.9475 8.4375 39.7687 8.505C42.939 8.76375 45.0968 11.025 45.3488 14.229C45.495 16.0537 45.54 18.612 45.5557 20.1195C45.5602 20.5365 45.5625 20.9542 45.5625 21.3727C45.5628 21.8203 45.3853 22.2496 45.069 22.5663C44.7528 22.883 44.3237 23.0611 43.8761 23.0614C43.4286 23.0617 42.9992 22.8842 42.6826 22.5679C42.3659 22.2517 42.1878 21.8226 42.1875 21.375C42.1853 20.4374 42.1748 19.4999 42.156 18.5625H9.5625V36.675C9.5625 37.962 9.5625 38.8283 9.61875 39.492C9.6705 40.14 9.765 40.4482 9.8685 40.6507C10.1385 41.1817 10.5683 41.6115 11.0993 41.8815C11.3018 41.985 11.61 42.0795 12.2558 42.1313C12.9218 42.1852 13.7857 42.1875 15.075 42.1875H36.675C37.962 42.1875 38.8283 42.1875 39.492 42.1313C40.14 42.0795 40.4482 41.985 40.6507 41.8815C40.8487 41.7744 41.0661 41.708 41.2901 41.6862C41.5141 41.6644 41.7403 41.6876 41.9552 41.7545C42.1701 41.8214 42.3694 41.9306 42.5415 42.0757C42.7135 42.2208 42.8548 42.3989 42.9571 42.5994C43.0593 42.7999 43.1203 43.0189 43.1367 43.2434C43.153 43.4679 43.1242 43.6933 43.0521 43.9066C42.98 44.1198 42.8659 44.3164 42.7167 44.4848C42.5674 44.6533 42.386 44.7902 42.183 44.8875C41.4247 45.2745 40.6237 45.4275 39.7687 45.495C38.9497 45.5625 37.9462 45.5625 36.7447 45.5625H15.0052C13.8038 45.5625 12.8002 45.5625 11.9812 45.495C11.1262 45.4275 10.3252 45.2745 9.567 44.8875C8.40319 44.2954 7.45652 43.3503 6.8625 42.1875C6.4755 41.427 6.3225 40.626 6.255 39.771C6.1875 38.9498 6.1875 37.9485 6.1875 36.747V17.2575C6.1875 16.0583 6.1875 15.0525 6.255 14.2312C6.50925 11.124 8.8065 8.76375 11.9812 8.505C12.8025 8.4375 13.8038 8.4375 15.0075 8.4375Z" fill="white"/>
<path d="M12.9375 22.5C12.9375 22.0524 13.1153 21.6232 13.4318 21.3068C13.7482 20.9903 14.1774 20.8125 14.625 20.8125H28.125C28.5726 20.8125 29.0018 20.9903 29.3182 21.3068C29.6347 21.6232 29.8125 22.0524 29.8125 22.5C29.8125 22.9476 29.6347 23.3768 29.3182 23.6932C29.0018 24.0097 28.5726 24.1875 28.125 24.1875H14.625C14.1774 24.1875 13.7482 24.0097 13.4318 23.6932C13.1153 23.3768 12.9375 22.9476 12.9375 22.5Z" fill="white"/>
<path fill-rule="evenodd" clip-rule="evenodd" d="M38.2501 23.0625C37.1198 23.0629 36.0049 23.3254 34.9931 23.8293C33.9813 24.3332 33.1 25.0648 32.4186 25.9667C31.7372 26.8685 31.2741 27.9161 31.0657 29.0271C30.8574 30.138 30.9094 31.2822 31.2177 32.3697C31.5261 33.4572 32.0823 34.4584 32.8428 35.2947C33.6033 36.131 34.5473 36.7796 35.6006 37.1895C36.654 37.5995 37.7881 37.7597 38.9138 37.6576C40.0396 37.5554 41.1263 37.1937 42.0886 36.6007L44.9326 39.4425C45.0871 39.6083 45.2734 39.7413 45.4804 39.8335C45.6874 39.9257 45.9109 39.9753 46.1375 39.9793C46.364 39.9833 46.5891 39.9416 46.7992 39.8568C47.0094 39.7719 47.2002 39.6456 47.3605 39.4853C47.5207 39.3251 47.647 39.1342 47.7319 38.9241C47.8168 38.714 47.8585 38.4889 47.8545 38.2623C47.8505 38.0357 47.8009 37.8123 47.7086 37.6053C47.6164 37.3983 47.4834 37.212 47.3176 37.0575L44.4759 34.2135C45.1592 33.1055 45.5344 31.8352 45.5626 30.5337C45.5909 29.2323 45.2712 27.9469 44.6366 26.8103C44.0021 25.6737 43.0756 24.7271 41.9529 24.0682C40.8301 23.4094 39.5519 23.0622 38.2501 23.0625ZM34.3126 30.375C34.3126 29.3307 34.7275 28.3292 35.4659 27.5908C36.2043 26.8523 37.2059 26.4375 38.2501 26.4375C39.2944 26.4375 40.2959 26.8523 41.0344 27.5908C41.7728 28.3292 42.1876 29.3307 42.1876 30.375C42.1876 31.4193 41.7728 32.4208 41.0344 33.1592C40.2959 33.8977 39.2944 34.3125 38.2501 34.3125C37.2059 34.3125 36.2043 33.8977 35.4659 33.1592C34.7275 32.4208 34.3126 31.4193 34.3126 30.375Z" fill="white"/>
<path d="M12.9375 27C12.9375 26.5524 13.1153 26.1232 13.4318 25.8068C13.7482 25.4903 14.1774 25.3125 14.625 25.3125H21.375C21.8226 25.3125 22.2518 25.4903 22.5682 25.8068C22.8847 26.1232 23.0625 26.5524 23.0625 27C23.0625 27.4476 22.8847 27.8768 22.5682 28.1932C22.2518 28.5097 21.8226 28.6875 21.375 28.6875H14.625C14.1774 28.6875 13.7482 28.5097 13.4318 28.1932C13.1153 27.8768 12.9375 27.4476 12.9375 27ZM14.625 32.0625C14.1774 32.0625 13.7482 32.2403 13.4318 32.5568C13.1153 32.8732 12.9375 33.3024 12.9375 33.75C12.9375 34.1976 13.1153 34.6268 13.4318 34.9432C13.7482 35.2597 14.1774 35.4375 14.625 35.4375H25.875C26.3226 35.4375 26.7518 35.2597 27.0682 34.9432C27.3847 34.6268 27.5625 34.1976 27.5625 33.75C27.5625 33.3024 27.3847 32.8732 27.0682 32.5568C26.7518 32.2403 26.3226 32.0625 25.875 32.0625H14.625ZM12.9375 38.25C12.9375 37.8024 13.1153 37.3732 13.4318 37.0568C13.7482 36.7403 14.1774 36.5625 14.625 36.5625H21.375C21.8226 36.5625 22.2518 36.7403 22.5682 37.0568C22.8847 37.3732 23.0625 37.8024 23.0625 38.25C23.0625 38.6976 22.8847 39.1268 22.5682 39.4432C22.2518 39.7597 21.8226 39.9375 21.375 39.9375H14.625C14.1774 39.9375 13.7482 39.7597 13.4318 39.4432C13.1153 39.1268 12.9375 38.6976 12.9375 38.25Z" fill="white"/>
</svg>
