<svg width="32" height="32" viewBox="0 0 32 32" fill="none" xmlns="http://www.w3.org/2000/svg">
<path d="M15.9993 19.2008C17.7667 19.2008 19.1993 17.7681 19.1993 16.0008C19.1993 14.2334 17.7667 12.8008 15.9993 12.8008C14.232 12.8008 12.7993 14.2334 12.7993 16.0008C12.7993 17.7681 14.232 19.2008 15.9993 19.2008Z" fill="white"/>
<path fill-rule="evenodd" clip-rule="evenodd" d="M23.6072 10.2448C23.4507 9.8211 23.2013 9.4376 22.8773 9.1228C22.5624 8.79867 22.1792 8.54922 21.7552 8.39285C21.4114 8.25931 20.8949 8.10035 19.9434 8.05704C18.9142 8.01011 18.6056 8 16.0002 8C13.3944 8 13.0858 8.00986 12.0568 8.05678C11.1055 8.10035 10.5887 8.25931 10.2451 8.39285C9.8211 8.54922 9.4376 8.79867 9.12306 9.1228C8.79893 9.4376 8.54947 9.82085 8.39285 10.2448C8.25931 10.5887 8.10035 11.1055 8.05704 12.0568C8.01011 13.0858 8 13.3944 8 16.0002C8 18.6056 8.01011 18.9142 8.05704 19.9434C8.10035 20.8949 8.25931 21.4114 8.39285 21.7552C8.54947 22.1792 8.79867 22.5624 9.1228 22.8773C9.4376 23.2013 9.82085 23.4507 10.2448 23.6072C10.5887 23.741 11.1055 23.8998 12.0568 23.9432C13.0858 23.9901 13.3941 24 15.9998 24C18.6059 24 18.9144 23.9901 19.9432 23.9432C20.8946 23.8998 21.4114 23.741 21.7552 23.6072C22.6062 23.2789 23.2789 22.6062 23.6072 21.7552C23.7406 21.4114 23.8997 20.8949 23.9432 19.9434C23.9901 18.9142 24 18.6056 24 16.0002C24 13.3944 23.9901 13.0858 23.9432 12.0568C23.8998 11.1055 23.741 10.5887 23.6072 10.2448ZM16.0002 20.8C13.3491 20.8 11.2 18.6512 11.2 16C11.2 13.3488 13.3491 11.2 16.0002 11.2C18.6509 11.2 20.8 13.3488 20.8 16C20.8 18.6512 18.6509 20.8 16.0002 20.8ZM20.8 10.4C20.8 10.8418 21.1582 11.2 21.6 11.2C22.0418 11.2 22.3998 10.8418 22.4 10.4C22.4 9.95819 22.0418 9.6 21.6 9.6C21.1582 9.6 20.8 9.95819 20.8 10.4Z" fill="white"/>
<path fill-rule="evenodd" clip-rule="evenodd" d="M0 16C0 7.17763 7.17763 0 16 0C24.823 0 32 7.17763 32 16C32 24.8218 24.8218 32 16 32C7.17763 32 0 24.8218 0 16ZM25.0958 22.2883C25.3331 21.6776 25.4957 20.9798 25.5421 19.9579C25.589 18.9342 25.6 18.6072 25.6 16C25.6 13.3928 25.589 13.0658 25.5424 12.0421C25.4957 11.0202 25.3334 10.3224 25.0958 9.71173C24.855 9.07117 24.4771 8.49107 23.9888 8.01147C23.5091 7.52296 22.9288 7.1449 22.2883 6.90382C21.6776 6.66683 20.9798 6.50459 19.9579 6.45816C18.9342 6.41123 18.6072 6.4 16 6.4C13.3928 6.4 13.0658 6.41123 12.0421 6.4579C11.0202 6.50459 10.3224 6.66683 9.71173 6.90408C9.07117 7.14515 8.49082 7.52296 8.01147 8.01147C7.52296 8.49082 7.1449 9.07117 6.90382 9.71173C6.66658 10.3224 6.50434 11.0202 6.4579 12.0421C6.41098 13.0658 6.4 13.3928 6.4 16C6.4 18.6072 6.41098 18.9342 6.45816 19.9582C6.50459 20.9798 6.66709 21.6778 6.90434 22.2883C7.14541 22.9288 7.52322 23.5091 8.01147 23.9885C8.49107 24.4771 9.07117 24.8549 9.71198 25.0958C10.3224 25.3331 11.0204 25.4954 12.0421 25.5421C13.0661 25.5888 13.3928 25.6 16.0003 25.6C18.6074 25.6 18.9344 25.5888 19.9582 25.5421C20.9798 25.4954 21.6778 25.3331 22.2883 25.0958C23.5778 24.5971 24.5971 23.5778 25.0958 22.2883Z" fill="white"/>
</svg>
