<svg width="180" height="58" viewBox="0 0 180 58" fill="none" xmlns="http://www.w3.org/2000/svg">
<path d="M158.758 5.73558C158.318 5.43729 154.998 3.30667 148.52 2.50769C147.03 2.32659 145.57 2.23071 144.18 2.23071C140.311 2.23071 138.162 2.93382 137.932 3.01904C136.842 3.40255 136.162 4.52113 136.262 5.70362C135.952 5.88472 135.632 6.08713 135.292 6.3215C133.482 7.55725 130.893 9.84767 128.813 13.6934C127.934 15.3234 127.244 17.177 126.754 19.2011C126.714 19.1798 126.674 19.1478 126.644 19.1265C126.594 19.0945 126.544 19.0626 126.494 19.0306C126.444 18.9987 126.394 18.9667 126.344 18.9347C126.294 18.9028 126.244 18.8708 126.194 18.8389C126.144 18.8069 126.094 18.7749 126.044 18.743C125.994 18.711 125.944 18.6791 125.894 18.6471C125.844 18.6152 125.794 18.5832 125.744 18.5512C125.694 18.5193 125.644 18.4873 125.594 18.4554C125.544 18.4234 125.494 18.3914 125.444 18.3595C125.394 18.3275 125.344 18.2956 125.294 18.2636C125.244 18.2316 125.194 18.1997 125.144 18.1677C125.094 18.1358 125.044 18.1038 124.994 18.0718C124.944 18.0399 124.894 18.0079 124.844 17.976C124.034 17.422 123.064 17.1024 122.055 17.0598C122.005 17.0598 121.945 17.0598 121.895 17.0598C120.835 17.0598 119.835 17.4859 118.995 18.1145L118.955 18.0932C118.955 18.0932 118.855 18.0292 118.805 17.9973C117.745 17.2835 116.486 16.868 115.126 16.8254C115.026 16.8254 114.926 16.8254 114.826 16.8254C114.546 16.8254 114.276 16.8361 114.006 16.8574C114.046 16.41 114.076 15.9625 114.096 15.5151C114.156 14.0237 113.686 12.6388 112.776 11.6161C112.457 11.2539 112.097 10.9449 111.697 10.6999C111.647 10.668 111.597 10.636 111.547 10.604C111.497 10.5721 111.447 10.5401 111.397 10.5082C111.347 10.4762 111.297 10.4442 111.247 10.4123C111.197 10.3803 111.147 10.3484 111.097 10.3164C111.047 10.2844 110.997 10.2525 110.947 10.2205C110.897 10.1886 110.847 10.1566 110.797 10.1246C110.747 10.0927 110.697 10.0607 110.647 10.0288C110.597 9.99681 110.547 9.96485 110.497 9.93289C110.447 9.90093 110.397 9.86897 110.347 9.83701C110.297 9.80505 110.247 9.7731 110.197 9.74114C110.147 9.70918 110.097 9.67722 110.047 9.64526C109.997 9.6133 109.947 9.58134 109.897 9.54938C109.847 9.51742 109.797 9.48546 109.747 9.4535C109.697 9.42155 109.647 9.38959 109.597 9.35763C109.547 9.32567 109.497 9.29371 109.447 9.26175C109.397 9.22979 109.347 9.19783 109.297 9.16587C109.247 9.13391 109.197 9.10195 109.147 9.06999C109.097 9.03803 109.047 9.00607 108.997 8.97411C108.947 8.94216 108.897 8.9102 108.847 8.87824C108.797 8.84628 108.747 8.81432 108.697 8.78236C108.647 8.7504 108.597 8.71844 108.547 8.68648C108.497 8.65452 108.447 8.62256 108.397 8.5906C108.347 8.55864 108.297 8.52668 108.247 8.49472C108.197 8.46277 108.147 8.43081 108.097 8.39885C108.047 8.36689 107.997 8.33493 107.947 8.30297C107.897 8.27101 107.847 8.23905 107.797 8.20709C107.747 8.17513 107.697 8.14317 107.647 8.11121C107.597 8.07925 107.547 8.04729 107.497 8.01534C107.447 7.98338 107.397 7.95142 107.348 7.91946C107.298 7.8875 107.248 7.85554 107.198 7.82358C107.148 7.79162 107.098 7.75966 107.048 7.7277C106.998 7.69574 106.948 7.66378 106.898 7.63182C106.848 7.59986 106.798 7.5679 106.748 7.53595C106.698 7.50399 106.648 7.47203 106.598 7.44007C106.548 7.40811 106.498 7.37615 106.448 7.34419C106.398 7.31223 106.348 7.28028 106.308 7.24832C106.258 7.21636 106.208 7.17374 106.148 7.14178C106.098 7.10982 106.048 7.07786 106.008 7.0459C105.958 7.01395 105.908 6.98199 105.858 6.95003C105.808 6.91807 105.758 6.88611 105.708 6.85415C104.848 6.26823 103.818 5.94864 102.708 5.93798C102.668 5.93798 102.628 5.93798 102.588 5.93798C101.899 5.93798 100.809 6.01255 99.799 6.20431C99.0391 6.35345 96.7296 6.81154 96.2197 8.97411C96.0397 9.74114 96.1697 10.4549 96.2696 10.9769C96.2896 11.0941 96.3196 11.2645 96.3296 11.3391C96.2796 13.4484 96.0397 15.5897 95.6898 17.7309C95.6498 17.699 95.5998 17.6777 95.5598 17.6457C95.5598 17.6457 95.4598 17.5818 95.4198 17.5498C95.3698 17.5179 95.3198 17.4859 95.2698 17.454C95.2198 17.422 95.1699 17.39 95.1199 17.3581C94.25 16.7722 93.2102 16.4419 92.1204 16.4419C91.0307 16.4419 89.9409 16.932 89.091 17.6244C87.9912 16.8894 86.6715 16.4952 85.2718 16.4952H85.1918C82.2623 16.5271 79.4629 17.8588 77.1333 20.2877C77.1033 20.2664 77.0633 20.2451 77.0333 20.2238C76.9834 20.1918 76.9334 20.1599 76.8834 20.1279C76.8334 20.0959 76.7834 20.064 76.7334 20.032C76.6834 20.0001 76.6334 19.9681 76.5834 19.9361C76.5334 19.9042 76.4835 19.8722 76.4335 19.8403C76.3835 19.8083 76.3335 19.7763 76.2835 19.7444C76.2335 19.7124 76.1835 19.6805 76.1335 19.6485C76.0835 19.6165 76.0335 19.5846 75.9836 19.5526C75.9336 19.5207 75.8836 19.4887 75.8336 19.4567C75.7836 19.4248 75.7336 19.3928 75.6936 19.3609C75.6436 19.3289 75.5936 19.297 75.5436 19.265C75.4937 19.233 75.4437 19.2011 75.3937 19.1691C75.3437 19.1372 75.2937 19.1052 75.2437 19.0732C75.1937 19.0413 75.1437 19.0093 75.0937 18.9774C75.0437 18.9454 74.9937 18.9134 74.9538 18.8815C74.9038 18.8495 74.8538 18.8176 74.8038 18.7856C74.7538 18.7536 74.7038 18.7217 74.6538 18.6897C74.6038 18.6578 74.5538 18.6258 74.5038 18.5938C74.4538 18.5619 74.4039 18.5299 74.3539 18.498C74.3039 18.466 74.2539 18.4341 74.2039 18.4021C74.1539 18.3701 74.1039 18.3382 74.0639 18.3062C74.0139 18.2743 73.9639 18.2316 73.904 18.1997C73.854 18.1677 73.804 18.1358 73.764 18.1038C73.714 18.0718 73.664 18.0399 73.614 18.0079C73.564 17.976 73.514 17.944 73.464 17.9121C73.414 17.8801 73.3641 17.8481 73.3141 17.8162C73.2641 17.7842 73.2141 17.7523 73.1641 17.7203C73.1141 17.6883 73.0741 17.6564 73.0241 17.6244C72.8841 17.5285 72.7342 17.4327 72.5842 17.3474C72.6742 16.6017 72.7142 16.0051 72.7142 15.5577C72.7142 13.6615 71.7644 12.2659 70.4546 11.435C70.4046 11.403 70.3546 11.3711 70.3046 11.3391C70.2547 11.3071 70.2047 11.2752 70.1547 11.2432C70.1047 11.2113 70.0547 11.1793 70.0047 11.1473C69.9547 11.1154 69.9047 11.0834 69.8547 11.0515C69.8047 11.0195 69.7547 10.9875 69.7048 10.9556C69.6548 10.9236 69.6048 10.8917 69.5548 10.8597C69.5048 10.8278 69.4548 10.7958 69.4048 10.7638C69.3548 10.7319 69.3048 10.6999 69.2548 10.668C69.2049 10.636 69.1549 10.604 69.1049 10.5721C69.0549 10.5401 69.0049 10.5082 68.9549 10.4762C68.9049 10.4442 68.8549 10.4123 68.8049 10.3803C68.7549 10.3484 68.705 10.3164 68.655 10.2844C68.605 10.2525 68.555 10.2205 68.505 10.1886C68.455 10.1566 68.405 10.1246 68.355 10.0927C68.305 10.0607 68.255 10.0288 68.205 9.99681C68.1551 9.96485 68.1051 9.93289 68.0551 9.90093C68.0051 9.86897 67.9551 9.83701 67.9051 9.80505C67.8551 9.77309 67.8051 9.74113 67.7551 9.70918C67.7052 9.67722 67.6552 9.64526 67.6052 9.6133C67.5552 9.58134 67.5052 9.54938 67.4652 9.51742C67.4152 9.48546 67.3652 9.4535 67.3152 9.42154C67.2652 9.38958 67.2152 9.35762 67.1652 9.32566C67.1153 9.2937 67.0653 9.26175 67.0153 9.22979C66.9653 9.19783 66.9153 9.16587 66.8653 9.13391C66.8153 9.10195 66.7653 9.06999 66.7153 9.03803C66.6653 9.00607 66.6154 8.97412 66.5654 8.94216C66.5154 8.9102 66.4654 8.87824 66.4154 8.84628C66.3654 8.81432 66.3154 8.78236 66.2654 8.7504C66.2154 8.71844 66.1654 8.68648 66.1155 8.65452C66.0655 8.62256 66.0155 8.5906 65.9655 8.55864C65.9155 8.52669 65.8655 8.49473 65.8155 8.46277C65.7655 8.43081 65.7155 8.39885 65.6655 8.36689C65.6155 8.33493 65.5656 8.30297 65.5156 8.27101C65.4656 8.23905 65.4156 8.20709 65.3656 8.17513C65.3156 8.14317 65.2656 8.11121 65.2156 8.07926C65.1656 8.0473 65.1156 8.01534 65.0657 7.98338C65.0157 7.95142 64.9657 7.91946 64.9157 7.8875C64.8657 7.85554 64.8157 7.82358 64.7657 7.79162C64.7157 7.75966 64.6657 7.7277 64.6157 7.69574C64.5658 7.66378 64.5158 7.63182 64.4658 7.59987C63.486 6.92872 62.2762 6.58782 61.1064 6.58782C61.0464 6.58782 60.9864 6.58782 60.9165 6.58782C59.5567 6.63043 58.057 7.0246 56.8972 7.63182C55.0776 8.5906 54.7476 10.2631 55.0176 11.5415L54.9576 11.4989C54.9576 11.4989 54.8576 11.435 54.8076 11.403C54.7576 11.3711 54.7076 11.3391 54.6577 11.3071C54.6077 11.2752 54.5577 11.2432 54.5077 11.2113C54.4577 11.1793 54.4077 11.1473 54.3577 11.1154C54.3077 11.0834 54.2577 11.0515 54.2078 11.0195C54.1578 10.9875 54.1078 10.9556 54.0578 10.9236C54.0078 10.8917 53.9578 10.8597 53.9078 10.8277C53.8578 10.7958 53.8078 10.7638 53.7578 10.7319C53.7078 10.6999 53.6579 10.668 53.6079 10.636C53.5579 10.604 53.5079 10.5721 53.4579 10.5401C53.4079 10.5082 53.3579 10.4762 53.3079 10.4442C53.2579 10.4123 53.2079 10.3803 53.158 10.3484C53.108 10.3164 53.058 10.2844 53.008 10.2525C52.958 10.2205 52.908 10.1886 52.858 10.1566C52.808 10.1246 52.758 10.0927 52.708 10.0607C52.6581 10.0288 52.6081 9.99681 52.5581 9.96485C51.9282 9.52808 51.1883 9.26175 50.4185 9.18718C50.2685 9.17652 50.1185 9.16587 49.9686 9.16587C47.479 9.16587 46.3493 11.0195 45.9293 11.7226L45.8894 11.7865L45.8694 11.8291C45.8694 11.8291 45.8394 11.8718 45.8294 11.9037C45.0395 13.2993 44.2297 14.7374 43.4398 16.1543C43.1099 15.7814 42.72 15.4512 42.2901 15.1742C42.2401 15.1422 42.1901 15.1103 42.1401 15.0783C42.0901 15.0464 42.0401 15.0144 41.9901 14.9825C41.9401 14.9505 41.8901 14.9185 41.8401 14.8866C41.7901 14.8546 41.7402 14.8227 41.6902 14.7907C41.6402 14.7587 41.5902 14.7268 41.5402 14.6948C41.4902 14.6629 41.4402 14.6309 41.3902 14.5989C41.3402 14.567 41.2902 14.535 41.2403 14.5031C41.1903 14.4711 41.1403 14.4391 41.0903 14.4072C41.0403 14.3752 40.9903 14.3433 40.9403 14.3113C40.9403 14.3113 40.8403 14.2474 40.7903 14.2154C40.7403 14.1835 40.6904 14.1515 40.6404 14.1196C40.5904 14.0876 40.5404 14.0556 40.4904 14.0237C40.4404 13.9917 40.3904 13.9598 40.3404 13.9278C40.2904 13.8958 40.2404 13.8639 40.1905 13.8319C40.1405 13.8 40.0905 13.768 40.0405 13.736C39.9905 13.7041 39.9405 13.6721 39.8905 13.6402C39.8405 13.6082 39.7905 13.5762 39.7405 13.5443C39.6906 13.5123 39.6406 13.4804 39.5906 13.4484C39.5406 13.4165 39.4906 13.3845 39.4406 13.3525C39.3906 13.3206 39.3406 13.2886 39.2906 13.2567C39.2406 13.2247 39.1906 13.1927 39.1407 13.1608C39.0907 13.1288 39.0407 13.0969 38.9907 13.0649C38.9407 13.0329 38.8907 13.001 38.8407 12.969C38.7907 12.9371 38.7407 12.9051 38.6907 12.8731C38.6408 12.8412 38.5908 12.8092 38.5408 12.7773C38.4908 12.7453 38.4408 12.7133 38.3908 12.6814C38.3408 12.6494 38.2908 12.6175 38.2408 12.5855C38.1908 12.5535 38.1409 12.5216 38.0909 12.4896C38.0409 12.4577 37.9909 12.4257 37.9409 12.3938C37.8909 12.3618 37.8409 12.3298 37.7909 12.2979C37.7409 12.2659 37.6909 12.234 37.6409 12.202C37.591 12.17 37.541 12.1381 37.491 12.1061C37.441 12.0742 37.391 12.0422 37.341 12.0102C37.291 11.9783 37.241 11.9463 37.191 11.9144C37.141 11.8824 37.0911 11.8504 37.0411 11.8185C36.9911 11.7865 36.9411 11.7546 36.8911 11.7226C36.8411 11.6906 36.7911 11.6587 36.7411 11.6267C36.6911 11.5948 36.6411 11.5628 36.5911 11.5309C36.5412 11.4989 36.4912 11.4669 36.4412 11.435C36.3912 11.403 36.3412 11.3711 36.2912 11.3391C35.2414 10.6253 33.8717 10.2205 32.312 10.2205C32.062 10.2205 31.8021 10.2312 31.5521 10.2525C30.1624 10.391 28.8027 10.7851 27.8428 11.3498C26.0932 12.3618 25.7532 14.013 26.1832 15.334C26.1832 15.3447 26.1632 15.366 26.1532 15.3766C25.9532 15.6536 25.7632 15.9199 25.5633 16.1863L25.5033 16.1436C25.5033 16.1436 25.4033 16.0797 25.3633 16.0478C25.3133 16.0158 25.2633 15.9838 25.2133 15.9412C25.1634 15.9093 25.1134 15.8773 25.0634 15.8454C25.0134 15.8134 24.9634 15.7814 24.9134 15.7495C24.8634 15.7175 24.8134 15.6856 24.7634 15.6536C24.7134 15.6216 24.6635 15.5897 24.6135 15.5577C24.5635 15.5258 24.5135 15.4938 24.4635 15.4618C24.4135 15.4299 24.3635 15.3979 24.3235 15.366C24.2735 15.334 24.2235 15.302 24.1735 15.2701C24.1236 15.2381 24.0736 15.2062 24.0236 15.1742C23.9736 15.1422 23.9336 15.1103 23.8836 15.0783C23.8336 15.0464 23.7836 15.0144 23.7336 14.9718C23.6836 14.9398 23.6336 14.9079 23.5837 14.8759C23.5337 14.844 23.4837 14.812 23.4337 14.78C23.3837 14.7481 23.3337 14.7161 23.2837 14.6842C23.2337 14.6522 23.1837 14.6202 23.1337 14.5883C23.0838 14.5563 23.0338 14.5244 22.9838 14.4924C22.9338 14.4605 22.8838 14.4285 22.8338 14.3965C22.7838 14.3646 22.7338 14.3326 22.6838 14.3007C22.6338 14.2687 22.5839 14.2367 22.5339 14.2048C22.4839 14.1728 22.4339 14.1409 22.3839 14.1089C22.3339 14.0769 22.2839 14.045 22.2339 14.013C22.1839 13.9811 22.1339 13.9491 22.0839 13.9171C22.034 13.8852 21.984 13.8532 21.934 13.8213C21.884 13.7893 21.834 13.7573 21.784 13.7254C21.734 13.6934 21.684 13.6615 21.644 13.6295C21.594 13.5976 21.5441 13.5656 21.4941 13.5336C21.4441 13.5017 21.3941 13.4697 21.3441 13.4378C21.2941 13.4058 21.2441 13.3738 21.1941 13.3419C21.1441 13.3099 21.0941 13.278 21.0441 13.246C20.9942 13.214 20.9442 13.1821 20.8942 13.1501C20.8442 13.1182 20.7942 13.0862 20.7442 13.0542C20.6942 13.0223 20.6442 12.9903 20.5942 12.9584C20.5442 12.9264 20.4943 12.8944 20.4443 12.8625C20.3943 12.8305 20.3543 12.7986 20.3043 12.7666C19.3745 12.1274 18.2147 11.7652 16.9349 11.7652C16.665 11.7652 16.385 11.7865 16.1151 11.8185L15.8851 11.8504C14.1255 12.0742 11.1761 12.447 9.83631 14.78C9.53637 15.2914 9.41639 15.8986 9.49638 16.4952L9.56636 16.9959C9.73633 18.2849 9.9063 19.51 9.9163 20.7138C9.94629 23.931 9.54637 27.1909 9.13645 30.6531C8.71653 34.0728 8.29661 37.5989 8.3166 41.1038C8.3466 46.5049 10.0063 48.9551 11.7159 50.0418C11.7659 50.0737 11.8159 50.1163 11.8759 50.1483C11.9259 50.1802 11.9659 50.2122 12.0159 50.2442C12.0659 50.2761 12.1259 50.3187 12.1759 50.3507C12.2259 50.3826 12.2758 50.4146 12.3158 50.4466C12.3658 50.4785 12.4158 50.5105 12.4658 50.5424C12.5158 50.5744 12.5658 50.6064 12.6158 50.6383C12.6658 50.6703 12.7158 50.7022 12.7657 50.7342C12.8157 50.7662 12.8657 50.7981 12.9157 50.8301C12.9657 50.862 13.0157 50.9046 13.0757 50.9366C13.1157 50.9686 13.1657 51.0005 13.2157 51.0218C13.2756 51.0644 13.3256 51.0964 13.3856 51.1284C13.4256 51.1603 13.4756 51.1816 13.5156 51.2136C13.5656 51.2456 13.6256 51.2882 13.6756 51.3201C13.7256 51.3521 13.7756 51.384 13.8255 51.416C13.8755 51.448 13.9255 51.4799 13.9755 51.5119C14.0255 51.5438 14.0855 51.5864 14.1355 51.6184C14.1855 51.6504 14.2355 51.6823 14.2755 51.7143C14.3254 51.7462 14.3754 51.7782 14.4254 51.8102C14.4754 51.8421 14.5354 51.8847 14.5854 51.9167C14.6254 51.9487 14.6754 51.9806 14.7254 52.0019C14.7754 52.0339 14.8353 52.0765 14.8853 52.1084C14.9353 52.1404 14.9753 52.1724 15.0253 52.1937C15.0753 52.2256 15.1253 52.2576 15.1753 52.2895C15.2253 52.3215 15.2753 52.3535 15.3253 52.3854C15.3752 52.4174 15.4152 52.4493 15.4652 52.4813C15.5152 52.5133 15.5652 52.5452 15.6152 52.5772C15.6652 52.6091 15.7152 52.6411 15.7652 52.6731C15.8152 52.705 15.8651 52.737 15.9151 52.7689C15.9651 52.8009 16.0151 52.8329 16.0651 52.8648C16.1151 52.8968 16.1651 52.9287 16.2151 52.9607C16.2651 52.9927 16.3151 53.0246 16.3651 53.0566C16.415 53.0885 16.465 53.1205 16.515 53.1525C16.565 53.1844 16.615 53.2164 16.655 53.2483C16.705 53.2803 16.765 53.3229 16.815 53.3549C16.855 53.3868 16.9049 53.4081 16.9449 53.4401C17.0049 53.4827 17.0549 53.5147 17.1149 53.5466C17.1549 53.5786 17.2049 53.6105 17.2549 53.6318C17.3049 53.6638 17.3549 53.6958 17.4049 53.7277C17.4548 53.7597 17.5048 53.7916 17.5548 53.8236C17.6048 53.8556 17.6448 53.8875 17.6948 53.9195C18.8246 54.6972 20.0043 54.8569 20.7742 54.8569C21.1041 54.8569 21.4541 54.825 21.804 54.7717C23.1237 54.5693 24.6535 54.2284 26.0432 53.3016C26.1032 53.259 26.1632 53.2164 26.2132 53.1738C27.4929 52.1404 27.6729 50.9899 27.6029 50.2015C27.5529 49.6582 27.3729 49.1362 27.073 48.6675L27.143 48.7101C27.143 48.7101 27.243 48.774 27.2929 48.806C27.3429 48.838 27.3929 48.8699 27.4429 48.9019C27.4929 48.9338 27.5429 48.9658 27.5929 48.9977C27.6429 49.0297 27.6929 49.0617 27.7429 49.0936C27.7928 49.1256 27.8428 49.1575 27.8928 49.1895C27.9428 49.2215 27.9928 49.2534 28.0428 49.2854C28.0928 49.3173 28.1428 49.3493 28.1928 49.3813C28.2428 49.4132 28.2928 49.4452 28.3427 49.4771C28.3927 49.5091 28.4427 49.5411 28.4927 49.573C28.5427 49.605 28.5927 49.6369 28.6427 49.6689C28.6927 49.7009 28.7427 49.7328 28.7927 49.7648C28.8426 49.7967 28.8926 49.8287 28.9426 49.8606C28.9926 49.8926 29.0426 49.9246 29.0926 49.9565C29.1426 49.9885 29.1826 50.0204 29.2326 50.0524C29.2826 50.0844 29.3326 50.127 29.3925 50.1589C29.4425 50.1909 29.4925 50.2229 29.5425 50.2548C29.5925 50.2868 29.6425 50.3187 29.6925 50.3507C29.7425 50.3826 29.7925 50.4253 29.8524 50.4572C29.8924 50.4892 29.9424 50.5211 29.9924 50.5424C30.0424 50.5744 30.0924 50.6064 30.1524 50.649C30.2024 50.6809 30.2524 50.7129 30.3024 50.7449C30.3524 50.7768 30.4023 50.8088 30.4523 50.8407C30.5023 50.8727 30.5523 50.9046 30.6023 50.9366C30.6523 50.9686 30.7023 51.0005 30.7523 51.0325C30.8023 51.0644 30.8523 51.0964 30.9022 51.1284C30.9522 51.1603 31.0022 51.2029 31.0622 51.2349C31.1122 51.2669 31.1522 51.2988 31.2022 51.3201C31.2522 51.3521 31.3122 51.3947 31.3622 51.4267C31.4121 51.4586 31.4521 51.4906 31.5021 51.5225C31.5521 51.5545 31.6021 51.5865 31.6521 51.6291C31.7021 51.661 31.7521 51.693 31.8021 51.7249C31.8521 51.7569 31.9021 51.7889 31.952 51.8208C32.002 51.8528 32.052 51.8847 32.102 51.9167C32.152 51.9487 32.192 51.9806 32.242 52.0126C33.3218 52.737 34.6115 53.227 36.1712 53.227C36.3512 53.227 36.5312 53.227 36.7111 53.2057C39.9205 52.9713 42.53 51.0431 43.8498 48.2094C44.5596 48.4651 45.3095 48.6036 46.0793 48.6036C46.2593 48.6036 46.4492 48.6036 46.6292 48.5823C48.5488 48.4331 50.3785 47.5596 51.8582 46.1853C51.8982 46.2173 51.9482 46.2386 51.9882 46.2706C52.0382 46.3025 52.0882 46.3345 52.1381 46.3664C52.1881 46.3984 52.2381 46.4304 52.2881 46.4623C52.3381 46.4943 52.3881 46.5262 52.4381 46.5582C52.4881 46.5902 52.5381 46.6221 52.5881 46.6541C52.6381 46.686 52.688 46.718 52.738 46.7499C52.788 46.7819 52.838 46.8139 52.888 46.8458C53.9378 47.5596 55.2276 47.9537 56.5773 47.9537C56.7273 47.9537 56.8772 47.9537 57.0172 47.9431C58.3669 47.8579 59.6167 47.3891 60.6765 46.6115C61.5163 47.1867 62.5361 47.517 63.6459 47.517C63.7459 47.517 63.8359 47.517 63.9359 47.517C65.0657 47.4637 66.0855 47.0482 66.9053 46.3558C67.9751 46.9843 69.2249 47.3252 70.5446 47.3252C70.6546 47.3252 70.7746 47.3252 70.8845 47.3252C73.8839 47.1867 76.4035 45.6101 78.3631 43.3197C78.4131 43.3516 78.4631 43.3836 78.5131 43.4155C78.5631 43.4475 78.6031 43.4794 78.653 43.5114C78.703 43.5434 78.763 43.586 78.813 43.6179C78.863 43.6499 78.913 43.6819 78.963 43.7138C79.013 43.7458 79.053 43.7777 79.103 43.8097C79.1529 43.8417 79.2029 43.8843 79.2629 43.9162C79.3129 43.9482 79.3529 43.9801 79.4029 44.0121C79.4529 44.0441 79.5029 44.0867 79.5629 44.1186C79.6128 44.1506 79.6628 44.1826 79.7028 44.2145C79.7528 44.2465 79.8028 44.2784 79.8528 44.3104C79.9028 44.3424 79.9528 44.3743 80.0028 44.4063C80.0528 44.4382 80.1028 44.4702 80.1527 44.5021C80.2027 44.5341 80.2527 44.5661 80.3027 44.598C80.3527 44.63 80.4027 44.6619 80.4527 44.6939C80.4527 44.6939 80.5427 44.7578 80.5927 44.7898C80.6426 44.8217 80.7026 44.8644 80.7526 44.8963C80.8026 44.9283 80.8526 44.9602 80.8926 44.9922C80.9426 45.0241 80.9926 45.0561 81.0426 45.0881C81.0926 45.12 81.1426 45.152 81.1926 45.1839C81.2425 45.2159 81.2925 45.2479 81.3325 45.2798C81.3825 45.3118 81.4325 45.3544 81.4925 45.3864C81.5425 45.4183 81.5825 45.4503 81.6325 45.4822C81.6824 45.5142 81.7324 45.5462 81.7924 45.5888C81.8424 45.6207 81.8824 45.6527 81.9324 45.6846C81.9824 45.7166 82.0324 45.7486 82.0824 45.7805C83.1722 46.5262 84.4419 46.9097 85.8017 46.9097C85.8516 46.9097 85.9016 46.9097 85.9616 46.9097C87.8613 46.8671 89.7009 46.1214 91.2306 44.875C91.2706 44.907 91.3206 44.9283 91.3606 44.9602C91.4106 44.9922 91.4606 45.0242 91.5106 45.0561C91.5605 45.0881 91.6105 45.12 91.6605 45.152C91.7105 45.1839 91.7605 45.2159 91.8105 45.2479C91.8605 45.2798 91.9105 45.3118 91.9605 45.3437C92.0105 45.3757 92.0605 45.4077 92.1204 45.4503C92.1704 45.4822 92.2104 45.5142 92.2604 45.5462C92.3104 45.5781 92.3604 45.6101 92.4104 45.642C92.4604 45.674 92.5104 45.7059 92.5604 45.7379C93.6301 46.4623 94.9499 46.8778 96.3096 46.8778H96.3696C97.9593 46.8671 99.449 46.3025 100.669 45.3331L100.749 45.3864C100.749 45.3864 100.849 45.4503 100.899 45.4822C100.949 45.5142 100.999 45.5461 101.049 45.5781C101.099 45.6101 101.149 45.642 101.199 45.674C101.199 45.674 101.299 45.7379 101.349 45.7699C101.399 45.8018 101.449 45.8338 101.499 45.8657C102.538 46.5795 103.818 46.9737 105.228 46.9737C107.098 46.9737 108.787 46.3025 110.087 45.1413L110.127 45.1626C110.127 45.1626 110.227 45.2266 110.277 45.2585C110.327 45.2905 110.377 45.3224 110.427 45.3544C110.477 45.3864 110.527 45.4183 110.577 45.4503C110.627 45.4822 110.677 45.5142 110.727 45.5462C110.777 45.5781 110.827 45.6101 110.877 45.642C110.927 45.674 110.977 45.7059 111.027 45.7379C111.077 45.7699 111.127 45.8018 111.177 45.8338C111.227 45.8657 111.277 45.8977 111.327 45.9297C112.377 46.6434 113.606 47.0376 114.946 47.0589C114.996 47.0589 115.046 47.0589 115.106 47.0589C116.916 47.0589 118.705 46.409 120.225 45.2798L120.295 45.3224C120.295 45.3224 120.395 45.3864 120.445 45.4183C120.495 45.4503 120.545 45.4822 120.595 45.5142C120.645 45.5462 120.695 45.5781 120.745 45.6101C120.795 45.642 120.845 45.674 120.895 45.7059C120.945 45.7379 120.995 45.7699 121.045 45.8018C121.095 45.8338 121.145 45.8657 121.195 45.8977C121.245 45.9297 121.295 45.9616 121.345 45.9936C121.395 46.0255 121.445 46.0575 121.495 46.0895C121.545 46.1214 121.595 46.1534 121.645 46.1853C121.695 46.2173 121.745 46.2493 121.795 46.2812C122.815 46.9737 124.064 47.3891 125.344 47.4317C125.424 47.4317 125.504 47.4317 125.584 47.4317C126.514 47.4317 127.404 47.2506 128.233 46.8991C128.363 47.0163 128.493 47.1228 128.643 47.208C128.693 47.24 128.743 47.2719 128.793 47.3039C128.843 47.3359 128.893 47.3678 128.943 47.3998C128.993 47.4317 129.043 47.4637 129.093 47.4957C129.143 47.5276 129.193 47.5596 129.243 47.5915C129.293 47.6235 129.343 47.6555 129.393 47.6874C129.443 47.7194 129.493 47.7513 129.543 47.7833C129.593 47.8153 129.643 47.8472 129.693 47.8792C129.743 47.9111 129.793 47.9431 129.843 47.9751C129.893 48.007 129.943 48.039 129.993 48.0709C130.043 48.1029 130.093 48.1348 130.143 48.1668C130.193 48.1988 130.243 48.2307 130.293 48.2627C130.343 48.2946 130.393 48.3266 130.443 48.3586C130.493 48.3905 130.543 48.4225 130.593 48.4544C130.643 48.4864 130.693 48.5184 130.743 48.5503C130.793 48.5823 130.843 48.6142 130.893 48.6462C130.943 48.6782 130.993 48.7101 131.043 48.7421C131.093 48.774 131.143 48.806 131.193 48.838C131.243 48.8699 131.293 48.9019 131.343 48.9338C131.393 48.9658 131.443 48.9977 131.493 49.0297C131.543 49.0617 131.593 49.0936 131.643 49.1256C131.693 49.1575 131.743 49.1895 131.793 49.2215C131.843 49.2534 131.893 49.2854 131.943 49.3173C131.993 49.3493 132.043 49.3813 132.093 49.4132C132.143 49.4452 132.193 49.4771 132.243 49.5091C132.293 49.5411 132.343 49.573 132.393 49.605C132.443 49.6369 132.493 49.6689 132.543 49.7008C132.593 49.7328 132.643 49.7648 132.693 49.7967C132.743 49.8287 132.793 49.8606 132.843 49.8926C132.893 49.9246 132.943 49.9565 132.993 49.9885C133.043 50.0204 133.093 50.0524 133.143 50.0844C133.193 50.1163 133.243 50.1483 133.292 50.1802C133.342 50.2122 133.392 50.2442 133.442 50.2761C133.492 50.3081 133.542 50.34 133.592 50.372C133.642 50.404 133.692 50.4359 133.742 50.4679C133.792 50.4998 133.842 50.5318 133.892 50.5638C133.942 50.5957 133.992 50.6277 134.042 50.6596C134.092 50.6916 134.142 50.7235 134.192 50.7555C134.242 50.7875 134.292 50.8194 134.342 50.8514C134.392 50.8833 134.442 50.9153 134.492 50.9473C134.542 50.9792 134.592 51.0112 134.642 51.0431C135.032 51.3201 135.502 51.4799 135.992 51.4799C136.172 51.4799 136.352 51.4586 136.532 51.416L137.142 51.2669L145.03 49.36L145.67 49.2002C146.31 49.0404 146.86 48.6249 147.21 48.0283C147.49 47.5383 147.61 46.963 147.56 46.3984C147.58 46.409 147.6 46.4197 147.61 46.4304C147.66 46.4623 147.71 46.4943 147.76 46.5262C147.81 46.5582 147.86 46.5901 147.91 46.6221C147.96 46.6541 148.01 46.686 148.06 46.718C148.11 46.75 148.16 46.7819 148.21 46.8139C148.26 46.8458 148.31 46.8778 148.36 46.9097C148.41 46.9417 148.46 46.9737 148.51 47.0056C148.56 47.0376 148.61 47.0695 148.66 47.1015C148.71 47.1335 148.76 47.1654 148.809 47.1974C148.859 47.2293 148.909 47.2613 148.959 47.2933C149.009 47.3252 149.059 47.3572 149.109 47.3891C149.159 47.4211 149.209 47.4531 149.259 47.485C149.309 47.517 149.359 47.5489 149.409 47.5809C149.459 47.6128 149.509 47.6448 149.559 47.6768C149.609 47.7087 149.659 47.7407 149.709 47.7726C149.759 47.8046 149.809 47.8366 149.859 47.8685C149.909 47.9005 149.959 47.9324 150.009 47.9644C150.059 47.9964 150.109 48.0283 150.159 48.0603C150.209 48.0922 150.259 48.1242 150.309 48.1562C150.359 48.1881 150.409 48.2201 150.459 48.252C150.509 48.284 150.559 48.316 150.609 48.3479C150.659 48.3799 150.709 48.4118 150.759 48.4438C150.809 48.4758 150.859 48.5077 150.909 48.5397C150.959 48.5716 151.009 48.6036 151.059 48.6355C151.109 48.6675 151.159 48.6995 151.209 48.7314C151.259 48.7634 151.309 48.7953 151.359 48.8273C151.409 48.8593 151.459 48.8912 151.509 48.9232C151.559 48.9551 151.609 48.9871 151.659 49.0191C151.709 49.051 151.759 49.083 151.809 49.1149C151.859 49.1469 151.909 49.1788 151.959 49.2108C152.009 49.2428 152.059 49.2747 152.109 49.3067C152.159 49.3386 152.209 49.3706 152.259 49.4026C152.309 49.4345 152.359 49.4665 152.409 49.4984C152.459 49.5304 152.509 49.5624 152.559 49.5943C152.609 49.6263 152.659 49.6582 152.709 49.6902C152.759 49.7222 152.809 49.7541 152.859 49.7861C152.909 49.818 152.959 49.85 153.009 49.882C153.059 49.9139 153.109 49.9459 153.159 49.9778C153.209 50.0098 153.259 50.0418 153.309 50.0737C153.359 50.1057 153.409 50.1376 153.459 50.1696C153.549 50.2335 153.639 50.2868 153.739 50.34L154.338 50.649L161.667 54.4734L162.227 54.7611C162.567 54.9422 162.937 55.0274 163.297 55.0274C164.167 55.0274 165.016 54.5267 165.446 53.6425L165.736 53.0566L170.105 44.2465L170.305 43.8523C170.755 42.9361 170.655 41.8282 170.055 41.0186L169.955 40.8908C170.955 38.5577 172.065 34.5948 172.165 28.3627C172.205 25.7847 171.795 23.2706 170.945 20.8843C170.265 18.9987 169.316 17.1876 168.106 15.5258C167.366 14.4924 166.616 13.6508 165.956 12.9797C166.356 11.8504 165.976 10.5614 165.006 9.89028C164.976 9.86897 164.916 9.82636 164.846 9.78375C164.816 9.76244 164.766 9.73048 164.696 9.68787C164.696 9.68787 164.616 9.6346 164.546 9.59199C164.546 9.59199 164.466 9.53873 164.396 9.49611C164.367 9.47481 164.317 9.44285 164.247 9.40023C164.217 9.37893 164.167 9.34697 164.107 9.30436C164.077 9.28305 164.017 9.2511 163.957 9.20848C163.957 9.20848 163.877 9.15522 163.817 9.11261C163.817 9.11261 163.737 9.05934 163.667 9.01673C163.637 8.99542 163.587 8.96346 163.517 8.92085C163.517 8.92085 163.437 8.86758 163.367 8.82497C163.367 8.82497 163.287 8.77171 163.217 8.72909C163.187 8.70779 163.137 8.67583 163.077 8.63322C163.077 8.63322 162.997 8.57995 162.927 8.53734C162.897 8.51603 162.847 8.48407 162.777 8.44146C162.747 8.42015 162.697 8.38819 162.627 8.34558C162.627 8.34558 162.547 8.29232 162.477 8.2497C162.447 8.2284 162.397 8.19644 162.337 8.15383C162.307 8.13252 162.257 8.10056 162.187 8.05795C162.187 8.05795 162.107 8.00468 162.037 7.96207C162.007 7.94076 161.957 7.9088 161.897 7.86619C161.897 7.86619 161.817 7.81293 161.747 7.77031C161.717 7.74901 161.667 7.71705 161.607 7.67444C161.607 7.67444 161.527 7.62117 161.457 7.57856C161.457 7.57856 161.377 7.52529 161.307 7.48268C161.277 7.46137 161.227 7.42942 161.157 7.3868C161.157 7.3868 161.077 7.33354 161.007 7.29093C160.977 7.26962 160.927 7.23766 160.867 7.19505C160.837 7.17374 160.787 7.14178 160.717 7.09917C160.717 7.09917 160.637 7.0459 160.567 7.00329C160.567 7.00329 160.487 6.95003 160.417 6.90741C160.417 6.90741 160.337 6.85415 160.267 6.81154C160.237 6.79023 160.187 6.75827 160.127 6.71566C160.097 6.69436 160.047 6.6624 159.977 6.61978C159.977 6.61978 159.897 6.56652 159.827 6.52391C159.797 6.5026 159.747 6.47064 159.677 6.42803C159.677 6.42803 159.597 6.37476 159.527 6.33215C159.497 6.31084 159.447 6.27888 159.377 6.23627C159.377 6.23627 159.297 6.18301 159.227 6.14039C159.227 6.14039 159.148 6.08713 159.078 6.04452C159.078 6.04452 158.998 5.99125 158.928 5.94864H158.938L158.758 5.73558ZM146.65 42.2011C146.09 39.1756 145.37 34.3924 145.6 30.749C145.74 28.5225 146.58 26.2854 147.91 24.6022C148.869 23.3877 149.969 22.5994 151.089 22.3118C151.789 24.0163 152.039 26.0404 151.769 28.0005C151.009 33.5188 146.8 41.9135 146.76 41.9987L146.66 42.2011H146.65Z" fill="black"/>
<path d="M47.489 27.1269C47.499 26.296 46.1992 25.5183 45.1794 25.6035C42.3799 25.8166 41.1202 30.8129 41.2302 33.1992C41.2602 33.7957 41.5501 35.4043 42.4599 35.2765C44.7695 34.9463 47.459 29.396 47.489 27.1375V27.1269ZM46.6691 37.5243C46.6591 37.2793 46.6391 36.9597 46.5891 36.7999C46.5391 36.6401 46.4592 36.5655 46.3792 36.5655C46.3392 36.5655 46.2592 36.6188 46.0592 37.0769C45.0694 39.4951 42.8598 41.4127 40.3503 41.6151C36.761 41.8921 34.8714 38.1102 34.6814 34.7865C34.3315 28.7355 38.5407 20.8096 44.7295 20.3835C46.0692 20.2876 47.439 20.735 48.3688 21.8323C48.5787 22.0667 48.7087 22.2584 48.8287 22.2478C48.9487 22.2478 49.0187 22.1199 49.1686 21.9069C49.6185 21.0014 50.6283 20 51.6282 19.9361C53.0679 19.8508 54.4976 20.7777 54.5376 22.4715C54.6376 26.3279 52.578 30.0458 52.7279 33.9555C52.7579 34.6799 52.8679 35.2552 53.4578 35.2232C53.9677 35.1913 54.5776 34.7545 54.8775 34.4988C55.1075 34.3284 55.2175 34.2325 55.3374 34.2325C55.4974 34.2325 55.4974 34.4243 55.5174 34.6693C55.5174 34.7225 55.5174 34.7438 55.5174 34.7865C55.6574 37.8759 53.7677 40.7841 50.7583 40.9759C48.7787 41.1037 46.6191 39.8999 46.6691 37.5137V37.5243Z" fill="#93C01E"/>
<path d="M67.6645 27.7875C67.6445 26.7648 67.1646 25.1562 66.0448 25.1988C63.7452 25.2734 61.3257 30.0886 61.3357 32.2831C61.3357 33.5295 62.4755 34.8292 63.6252 34.7546C66.0248 34.5948 67.7044 30.1951 67.6645 27.7875ZM60.7058 38.5791C60.4159 38.1849 60.3059 38.1849 60.2659 38.3128C59.866 39.6444 59.0161 40.4753 57.7064 40.5393C56.0067 40.6245 54.667 39.4313 54.647 37.5564C54.647 37.1622 54.647 36.7042 54.707 36.2141C55.2169 30.5573 56.1867 24.9431 56.8365 19.3077C57.1165 16.8148 57.6564 14.2475 57.5764 11.7546C57.5664 11.3498 57.5364 11.0196 57.4564 10.7852C57.2965 10.2952 57.5164 9.97557 58.0163 9.69859C58.8862 9.24051 60.0459 8.95287 61.0257 8.92091C62.3955 8.8783 64.1751 9.62401 64.1751 11.3605C64.1751 11.8292 64.0951 12.7454 63.8652 14.2581C63.5553 16.3994 63.2553 18.5406 62.9554 20.6713C62.8254 21.694 62.7354 22.429 62.7554 22.9191C62.7554 23.2067 62.8054 23.3239 62.9254 23.3239C63.0454 23.3239 63.1953 23.1534 63.4653 22.8125C64.905 20.9269 67.0646 19.0094 69.4141 18.9561C72.7835 18.8709 74.4631 22.7806 74.5031 25.9445C74.5731 31.612 70.7439 40.0492 64.665 40.3369C63.1953 40.4008 61.6556 39.8362 60.7058 38.5791Z" fill="#93C01E"/>
<path d="M87.6411 25.8595C87.6911 25.0286 86.4314 24.187 85.4115 24.2083C82.6021 24.2616 81.1024 29.1833 81.0924 31.5589C81.0924 32.1555 81.3023 33.7748 82.2122 33.7002C84.5417 33.4978 87.5011 28.1073 87.6411 25.8595ZM86.3114 36.1824C86.3114 35.9374 86.3114 35.6178 86.2714 35.4473C86.2314 35.2875 86.1514 35.2023 86.0714 35.2023C86.0314 35.2023 85.9515 35.2449 85.7215 35.6923C84.6117 38.0467 82.3122 39.847 79.7926 39.9003C76.2033 39.9749 74.5037 36.0971 74.4837 32.7627C74.4437 26.7011 79.0328 19.0203 85.2316 18.9563C86.5813 18.9457 87.9111 19.457 88.7909 20.6076C88.9909 20.8526 89.1108 21.055 89.2308 21.055C89.3508 21.055 89.4308 20.9378 89.5907 20.7248C90.0906 19.8405 91.1404 18.9031 92.1503 18.9031C93.59 18.9031 94.9697 19.9045 94.9297 21.5983C94.8297 25.4547 92.6002 29.0555 92.5502 32.9651C92.5502 33.6896 92.6202 34.2648 93.21 34.2648C93.7199 34.2648 94.3498 33.86 94.6598 33.6256C94.8997 33.4658 95.0097 33.3806 95.1297 33.3806C95.2896 33.3806 95.2896 33.583 95.2796 33.828C95.2796 33.8813 95.2796 33.9026 95.2796 33.9452C95.2696 37.0453 93.23 39.8364 90.2206 39.8577C88.241 39.879 86.1414 38.5474 86.3114 36.1717V36.1824Z" fill="#93C01E"/>
<path d="M94.8901 35.3406C94.9301 33.5616 95.34 31.7825 95.67 30.0673C96.8798 23.8459 98.6494 17.5819 98.7894 11.2433C98.7994 10.6361 98.5194 9.87975 98.6094 9.49624C98.8194 8.63334 101.669 8.40963 102.709 8.42028C104.298 8.44159 105.638 9.49624 105.568 11.3605C105.388 15.7816 103.838 20.2239 102.979 24.5597C102.399 27.5 101.629 30.5893 101.499 33.5189C101.479 34.0303 101.719 34.3712 102.269 34.3818C102.819 34.3818 103.888 33.4763 104.008 33.4018C104.128 33.3272 104.268 33.4231 104.268 34.3392C104.248 37.5032 102.139 39.9854 99.1093 39.9854C96.5198 39.9854 94.8401 38.0891 94.9001 35.3513L94.8901 35.3406Z" fill="#93C01E"/>
<path d="M117.225 26.3814C117.305 25.5504 116.076 24.6556 115.066 24.6342C112.256 24.5703 110.577 29.4281 110.477 31.8038C110.447 32.4003 110.607 34.0303 111.516 33.9877C113.846 33.8811 117.005 28.6185 117.225 26.3814ZM115.506 36.6403C115.506 36.3953 115.526 36.0757 115.486 35.9052C115.456 35.7454 115.376 35.6602 115.296 35.6495C115.256 35.6495 115.176 35.6815 114.926 36.1289C113.726 38.4406 111.357 40.1345 108.847 40.0812C105.258 40.0066 103.698 36.0543 103.798 32.7306C103.978 26.669 108.857 19.1905 115.056 19.3823C116.406 19.4249 117.715 20.0002 118.545 21.1826C118.735 21.4383 118.845 21.6407 118.965 21.6514C119.085 21.6514 119.165 21.5342 119.335 21.3424C119.865 20.4795 120.955 19.5847 121.954 19.6273C123.394 19.6912 124.734 20.7459 124.634 22.4397C124.394 26.2855 122.024 29.7903 121.834 33.7C121.794 34.4244 121.864 34.9997 122.444 35.0317C122.954 35.053 123.594 34.6801 123.924 34.4564C124.164 34.3072 124.284 34.2327 124.404 34.2327C124.564 34.2327 124.554 34.4457 124.544 34.6908C124.544 34.744 124.544 34.7653 124.544 34.8079C124.414 37.8973 122.274 40.6032 119.275 40.5073C117.295 40.4434 115.246 39.0266 115.506 36.6616V36.6403Z" fill="#93C01E"/>
<path d="M10.8059 40.6567C10.7659 33.9346 12.4755 26.9994 12.4156 20.256C12.3956 18.7114 12.1756 17.2306 11.9756 15.7072C12.7455 14.3649 15.155 14.1305 16.4748 13.9707C18.2344 13.747 20.1841 14.6632 20.304 16.7725C20.454 19.4038 20.0241 22.1523 19.6542 24.7516C19.6042 25.2736 19.5542 25.6572 19.5742 25.8809C19.5942 26.1579 19.7241 26.307 19.8341 26.275C21.3138 25.8596 22.8535 23.3348 24.0233 21.8966C25.463 20.1389 26.8828 18.3491 28.2125 16.4955C28.6224 15.8563 28.7824 15.4195 28.7424 14.9082C28.7224 14.6312 28.6524 14.3542 28.5924 14.1731C28.4225 13.8109 28.5524 13.5446 29.0823 13.2463C29.7722 12.8522 30.812 12.5539 31.8618 12.458C33.5715 12.2875 36.081 12.9161 36.221 15.1639C36.3809 17.6034 34.3313 20.043 32.7816 21.609C30.642 23.8248 26.0829 27.3084 26.0629 29.1088C26.0429 30.6854 28.9724 33.924 30.4721 36.1611C31.2519 37.3542 32.3917 39.08 33.8014 39.0694C34.4713 39.0694 35.1412 38.2171 35.6011 37.8017C35.771 37.6525 36.121 37.7271 36.211 38.7818C36.5309 42.6808 34.1814 45.9513 30.4321 46.2283C27.3327 46.452 25.623 43.8739 24.1233 41.3172C22.8735 39.0268 20.9739 34.2542 19.3642 33.8174C19.3342 33.8174 19.1843 33.9346 19.0743 34.5951C18.5644 37.5886 18.1944 40.9124 18.4744 43.9805C18.5444 44.7688 18.6943 45.3654 18.9343 45.621C19.0343 45.7489 19.0943 45.8874 19.1043 46.0259C19.1243 46.207 19.0043 46.4094 18.6743 46.6757C17.6745 47.3468 16.4948 47.6025 15.375 47.773C11.5157 48.3802 10.8259 43.842 10.8059 40.6354V40.6567Z" fill="#93C01E"/>
<path d="M51.7978 12.33C51.4379 11.8506 50.888 11.5417 50.2781 11.4884C48.9284 11.3713 48.4085 12.2235 48.0385 12.8414C48.0086 12.884 47.9986 12.9053 47.9786 12.9479C47.1487 14.418 46.3189 15.8882 45.489 17.3689C45.2491 17.8164 45.2391 18.3064 45.449 18.7112C45.669 19.1267 46.0989 19.4143 46.5688 19.457C46.6288 19.457 46.6888 19.457 46.7388 19.457C47.0787 19.4356 47.4187 19.2758 47.6786 19.0095C48.8984 17.7525 50.1181 16.4954 51.3379 15.2383C51.8578 14.7483 52.0478 14.4287 52.1578 13.8534C52.2577 13.3208 52.1278 12.7775 51.7978 12.33Z" fill="#93C01E"/>
<path d="M162.437 17.6566C161.847 16.0054 161.007 14.4181 159.947 12.9586C158.667 11.1902 157.388 10.029 156.718 9.48571L157.198 8.45236L157.448 7.9197C157.448 7.9197 154.448 5.84235 148.239 5.08598C142.031 4.32961 138.681 5.4908 138.681 5.4908L138.821 6.05541L139.091 7.14203C138.541 7.36574 137.652 7.78121 136.612 8.50562C135.032 9.59224 132.762 11.595 130.933 14.9934C129.983 16.7405 129.283 18.7965 128.843 21.0976C128.493 22.9192 128.313 24.9007 128.293 26.9887C128.273 29.7372 128.543 31.9104 128.683 32.8053L127.683 33.5723L127.333 33.8387L127.433 34.2861L129.653 43.9804L129.803 44.6302L130.423 44.4811L138.311 42.5742L138.951 42.4144L138.791 41.7326C138.771 41.6474 136.682 32.7307 137.072 26.5413C137.252 23.7821 138.291 20.991 139.941 18.903C141.641 16.7511 143.77 15.5686 145.94 15.5686C146.28 15.5686 146.63 15.6006 146.97 15.6538C149.369 16.0693 151.429 17.646 152.769 20.0962C154.058 22.4612 154.578 25.476 154.178 28.3736C153.358 34.3713 148.949 43.1388 148.909 43.224L148.589 43.8525L149.189 44.1615L156.518 47.986L157.078 48.2736L157.368 47.6877L161.737 38.8776L161.937 38.4834L161.677 38.1319L160.837 37.0133C161.577 35.7669 163.397 31.9424 163.517 24.155C163.557 21.9072 163.197 19.7233 162.447 17.646L162.437 17.6566Z" fill="#E95A0C"/>
<path d="M157.447 19.1693C157.297 19.2759 157.127 19.3078 156.967 19.2865C156.777 19.2652 156.597 19.148 156.477 18.9669L155.078 16.7617C154.858 16.4208 154.948 15.9628 155.268 15.7284C155.588 15.494 156.017 15.5899 156.237 15.9308L157.637 18.136C157.857 18.4769 157.767 18.935 157.447 19.1693ZM139.051 14.6098L137.181 16.3782C137.021 16.5274 136.821 16.5806 136.631 16.5593C136.471 16.538 136.311 16.4528 136.191 16.3143C135.931 16.0054 135.961 15.5366 136.251 15.2597L138.121 13.4913C138.411 13.2143 138.851 13.2462 139.111 13.5552C139.371 13.8641 139.341 14.3328 139.051 14.6098ZM134.692 19.8298L133.822 22.3333C133.712 22.6636 133.392 22.8553 133.082 22.8127C133.032 22.8127 132.982 22.7914 132.922 22.7701C132.562 22.6316 132.372 22.1948 132.512 21.8113L133.382 19.3078C133.512 18.9243 133.922 18.7219 134.282 18.8711C134.642 19.0096 134.832 19.4357 134.692 19.8298ZM132.502 29.9716C132.502 29.9716 132.432 29.9716 132.402 29.9716C132.062 29.929 131.792 29.62 131.792 29.2472L131.762 26.5839C131.762 26.1684 132.062 25.8382 132.452 25.8275C132.832 25.8275 133.152 26.1471 133.162 26.5626L133.192 29.2259C133.192 29.6413 132.892 29.9716 132.502 29.9822V29.9716ZM158.707 22.1522C159.087 22.1096 159.437 22.4079 159.477 22.8127L159.737 25.4653C159.777 25.8701 159.497 26.243 159.117 26.2856C159.067 26.2856 159.007 26.2856 158.957 26.2856C158.637 26.243 158.387 25.9767 158.347 25.6251L158.087 22.9725C158.047 22.5677 158.327 22.1948 158.707 22.1522ZM159.347 30.2699L158.697 32.8479C158.607 33.2101 158.277 33.4338 157.937 33.3912C157.907 33.3912 157.877 33.3806 157.837 33.3699C157.467 33.2634 157.247 32.8586 157.347 32.4537L157.997 29.8757C158.097 29.4815 158.477 29.2472 158.847 29.3537C159.217 29.4602 159.437 29.865 159.337 30.2699H159.347ZM156.527 34.8507L158.857 36.438C158.857 36.438 162.996 28.8956 160.687 20.6821C158.637 13.438 154.238 11.4459 154.238 11.4459L152.978 12.9693L154.368 9.6881C154.368 9.6881 151.978 8.17536 147.949 7.67467C143.91 7.17397 141.31 7.89838 141.31 7.89838L141.93 11.1582L141.03 9.59222C141.03 9.59222 133.252 12.5112 131.322 20.0429C129.383 27.5746 130.782 32.752 130.782 32.752L133.462 31.6654L133.182 33.7321L129.812 35.0531L131.342 42.1054L136.671 40.8803C136.671 40.8803 133.682 32.1128 135.611 23.7076C137.531 15.3023 143.39 12.884 147.719 13.6191C152.038 14.3648 156.827 19.0522 156.227 27.3829C155.628 35.7136 151.348 42.8085 151.348 42.8085L156.107 45.4292L159.297 39.0587L156.257 36.9174L156.537 34.8507H156.527Z" fill="#FAB900"/>
<path d="M159.347 30.2698L158.698 32.8479C158.608 33.2101 158.278 33.4338 157.938 33.3912C157.908 33.3912 157.878 33.3805 157.838 33.3699C157.468 33.2634 157.248 32.8585 157.348 32.4644L157.998 29.8863C158.098 29.4922 158.478 29.2578 158.858 29.3643C159.228 29.4709 159.447 29.8757 159.347 30.2805V30.2698Z" fill="#E75C0D"/>
<path d="M158.707 22.152C159.087 22.1094 159.437 22.4077 159.477 22.8125L159.737 25.4651C159.777 25.8699 159.497 26.2428 159.117 26.2854C159.067 26.2854 159.007 26.2854 158.957 26.2854C158.637 26.2428 158.387 25.9765 158.347 25.6249L158.087 22.9723C158.047 22.5675 158.327 22.1946 158.707 22.152Z" fill="#E75C0D"/>
<path d="M132.503 29.9717C132.503 29.9717 132.443 29.9717 132.403 29.9717C132.063 29.9291 131.793 29.6201 131.793 29.2473L131.763 26.584C131.763 26.1685 132.063 25.8383 132.453 25.8276C132.832 25.8276 133.152 26.1472 133.162 26.5627L133.192 29.226C133.192 29.6414 132.892 29.9717 132.503 29.9823V29.9717Z" fill="#E75C0D"/>
<path d="M134.692 19.8298L133.822 22.3333C133.712 22.6635 133.392 22.8552 133.082 22.8126C133.032 22.8126 132.982 22.7913 132.922 22.77C132.562 22.6315 132.372 22.1948 132.512 21.8112L133.382 19.3078C133.512 18.9243 133.922 18.7219 134.282 18.871C134.642 19.0095 134.832 19.4463 134.692 19.8298Z" fill="#E75C0D"/>
<path d="M139.041 14.6101L137.172 16.3785C137.012 16.5276 136.812 16.5915 136.622 16.5596C136.462 16.5383 136.302 16.453 136.182 16.3145C135.932 16.0056 135.952 15.5369 136.242 15.2599L138.112 13.4915C138.401 13.2145 138.841 13.2465 139.101 13.5554C139.361 13.8643 139.331 14.3331 139.041 14.6101Z" fill="#E75C0D"/>
<path d="M157.448 19.1694C157.298 19.2759 157.128 19.3185 156.968 19.2866C156.778 19.2653 156.598 19.1481 156.478 18.967L155.078 16.7618C154.858 16.4209 154.948 15.9628 155.268 15.7285C155.588 15.4941 156.018 15.59 156.238 15.9309L157.638 18.136C157.858 18.4769 157.768 18.935 157.448 19.1694Z" fill="#E75C0D"/>
</svg>
