<svg width="90" height="30" viewBox="0 0 90 30" fill="none" xmlns="http://www.w3.org/2000/svg">
<path d="M35.8953 14.3594H29.8528L29.8276 13.8055L34.6616 7.02027V6.9825H31.1368L30.7844 8.65678L30.0039 8.54348L30.3186 6.17684H35.9582L35.9834 6.68038L31.1243 13.5159V13.5537H35.077L35.4295 11.8165L36.2226 11.9298L35.8953 14.3594ZM45.3149 10.2681C45.3149 11.0402 45.1428 11.7452 44.7987 12.383C44.4546 13.0208 43.9721 13.5327 43.351 13.9188C42.73 14.2964 42.0083 14.4853 41.1858 14.4853C39.9521 14.4853 38.966 14.074 38.2275 13.2516C37.489 12.4207 37.1197 11.4263 37.1197 10.2681C37.1197 9.09318 37.4974 8.09869 38.2527 7.28463C39.0164 6.46218 40.0025 6.05095 41.211 6.05095C42.4363 6.05095 43.4266 6.46218 44.1819 7.28463C44.9372 8.10708 45.3149 9.10157 45.3149 10.2681ZM44.3204 10.2807C44.3204 9.29879 44.0392 8.48893 43.4769 7.85111C42.9146 7.2049 42.1593 6.8818 41.211 6.8818C40.2375 6.8818 39.478 7.2091 38.9325 7.8637C38.387 8.5183 38.1142 9.31558 38.1142 10.2555C38.1142 11.1787 38.387 11.9759 38.9325 12.6473C39.478 13.3187 40.2459 13.6544 41.2362 13.6544C42.2013 13.6544 42.9566 13.3313 43.5021 12.6851C44.0476 12.0305 44.3204 11.229 44.3204 10.2807ZM54.4896 6.9825H53.47V14.3594H52.8783L48.1324 7.91405H48.0821V13.5537H49.3787V14.3594H46.2567V13.5537H47.2009V6.9825H46.1183V6.17684H47.8807L52.5384 12.4837H52.5888V6.9825H51.3551V6.17684H54.4896V6.9825ZM62.9334 14.3594H60.0254V13.5537H61.1206L60.529 11.9801H57.0294L56.3999 13.5537H57.5833V14.3594H54.7005V13.5537H55.4684L58.1497 6.9825H56.8405V6.17684H59.1694L62.1025 13.5537H62.9334V14.3594ZM60.2646 11.2626L58.8547 7.51122H58.7792L57.3063 11.2626H60.2646Z" fill="white"/>
<path d="M35.5932 23.4521C35.5932 24.2409 35.312 24.841 34.7497 25.2522C34.1959 25.6634 33.5035 25.869 32.6726 25.869C31.5313 25.869 30.6543 25.6467 30.0416 25.2019L30.2179 23.5905L30.9732 23.6661L30.9228 24.6983C31.1998 24.841 31.4767 24.9375 31.7537 24.9879C32.0306 25.0382 32.3202 25.0634 32.6223 25.0634C33.1594 25.0634 33.621 24.9501 34.007 24.7235C34.4015 24.4885 34.5987 24.0941 34.5987 23.5402C34.5987 22.9191 34.3847 22.5163 33.9567 22.3317C33.5287 22.1387 33.0629 21.9834 32.5593 21.8659C32.1733 21.782 31.7914 21.6771 31.4138 21.5512C31.0361 21.4169 30.7214 21.2113 30.4697 20.9344C30.2179 20.649 30.092 20.2378 30.092 19.7007C30.092 18.9286 30.348 18.3579 30.8599 17.9886C31.3802 17.6194 31.9929 17.4347 32.6978 17.4347C33.151 17.4347 33.6084 17.4977 34.07 17.6236C34.5315 17.7495 34.8924 17.9131 35.1526 18.1145L35.2281 19.7384L34.4728 19.814L34.3469 18.5929C34.0868 18.4586 33.8224 18.3705 33.5538 18.3285C33.2853 18.2782 33.0293 18.253 32.7859 18.253C32.274 18.253 31.8586 18.3705 31.5397 18.6055C31.2292 18.8321 31.0739 19.1636 31.0739 19.6C31.0739 20.1119 31.2627 20.456 31.6404 20.6322C32.018 20.8085 32.4377 20.9511 32.8992 21.0602C33.2685 21.1442 33.6587 21.2533 34.07 21.3875C34.4896 21.5134 34.8463 21.7358 35.14 22.0547C35.4421 22.3652 35.5932 22.831 35.5932 23.4521ZM42.7586 25.7432H36.6658V24.9375H37.698V18.3663H36.6658V17.5606H42.6453L42.8971 19.8769L42.0914 19.965L41.8396 18.3663H38.617V21.1861H42.4817V21.9918H38.617V24.9375H41.9529L42.2047 23.3388L42.9978 23.4269L42.7586 25.7432ZM51.8965 22.3443H51.2545V25.7432H50.5495L50.4362 24.6102C50.1928 24.9711 49.8446 25.2732 49.3914 25.5166C48.9466 25.7516 48.4221 25.869 47.8178 25.869C46.6932 25.869 45.7827 25.4662 45.0861 24.6606C44.3895 23.8549 44.0413 22.8646 44.0413 21.6897C44.0413 20.9008 44.2091 20.1874 44.5448 19.5496C44.8889 18.9034 45.3589 18.3915 45.9547 18.0138C46.559 17.6278 47.2513 17.4347 48.0318 17.4347C48.6864 17.4347 49.2571 17.5271 49.7439 17.7117C50.239 17.8879 50.6418 18.1145 50.9523 18.3915L51.1789 19.9273L50.3985 20.0154L50.1467 18.8572C49.9201 18.7062 49.6431 18.5719 49.3158 18.4544C48.9969 18.3285 48.5857 18.2656 48.0822 18.2656C47.1674 18.2656 46.4289 18.5803 45.8666 19.2097C45.3043 19.8391 45.0232 20.6532 45.0232 21.6519C45.0232 22.6674 45.2917 23.4856 45.8288 24.1067C46.3659 24.7277 47.0835 25.0382 47.9815 25.0382C48.7284 25.0382 49.3074 24.8368 49.7187 24.434C50.1299 24.0227 50.3355 23.5695 50.3355 23.0744V22.3443H48.3843V21.526H51.8965V22.3443ZM60.8017 18.3663H60.0086V22.382C60.0086 22.9611 59.9079 23.5192 59.7065 24.0563C59.5135 24.585 59.1778 25.0214 58.6994 25.3655C58.2294 25.7012 57.5748 25.869 56.7356 25.869C55.5187 25.869 54.6795 25.5334 54.2179 24.862C53.7647 24.1822 53.5381 23.4017 53.5381 22.5205V18.3663H52.6947V17.5606H55.6026V18.3663H54.4697V22.4953C54.4697 23.301 54.6585 23.9262 55.0361 24.371C55.4138 24.8158 55.9971 25.0382 56.7859 25.0382C58.3553 25.0382 59.14 24.1528 59.14 22.382V18.3663H57.9693V17.5606H60.8017V18.3663ZM68.9184 25.7432H67.2819L65.5195 22.3191H63.7697V24.9375H64.8649V25.7432H61.8059V24.9375H62.8382V18.3663H61.8059V17.5606H65.3433C66.3588 17.5606 67.0847 17.783 67.5211 18.2278C67.9575 18.6642 68.1757 19.2139 68.1757 19.8769C68.1757 20.4056 68.0288 20.8798 67.7351 21.2994C67.4414 21.7106 67.005 21.9918 66.4259 22.1428L67.8862 24.9375H68.9184V25.7432ZM67.2064 19.9147C67.2064 19.3776 67.0511 18.9873 66.7406 18.7439C66.4301 18.4922 65.9266 18.3663 65.23 18.3663H63.7697V21.5512H65.2552C65.9517 21.5512 66.4511 21.4085 66.7532 21.1232C67.0553 20.8294 67.2064 20.4266 67.2064 19.9147ZM77.2921 25.7432H74.3842V24.9375H75.4794L74.8877 23.3639H71.3881L70.7587 24.9375H71.942V25.7432H69.0593V24.9375H69.8272L72.5085 18.3663H71.1993V17.5606H73.5282L76.4613 24.9375H77.2921V25.7432ZM74.6234 22.6464L73.2135 18.895H73.1379L71.6651 22.6464H74.6234Z" fill="white"/>
<path d="M15.7043 9.02429C16.7697 9.3887 17.767 9.87292 18.6671 10.4628V6.32321C18.6705 5.49468 18.473 4.67375 18.0862 3.90738C17.6993 3.14101 17.1305 2.44424 16.4124 1.85694C15.6943 1.26964 14.841 0.803329 13.9012 0.484696C12.9615 0.166062 11.9537 0.00135601 10.9357 0L10.8213 0C8.77179 0.00273658 6.80723 0.666538 5.35804 1.84595C3.90884 3.02537 3.09321 4.62422 3.08984 6.29216V10.4317C3.98834 9.85361 4.98123 9.37993 6.03999 9.02429C6.33246 8.9208 6.62493 8.83801 6.9174 8.75522V6.29216C6.91573 5.87407 7.01547 5.45981 7.21091 5.07315C7.40635 4.68649 7.69364 4.33502 8.05631 4.0389C8.41898 3.74278 8.84991 3.50783 9.32437 3.34752C9.79884 3.1872 10.3075 3.10468 10.8213 3.10469H10.9357C11.9667 3.10741 12.9544 3.44193 13.6834 4.03523C14.4125 4.62852 14.8235 5.43242 14.8268 6.27147V8.75522C15.1193 8.83801 15.4245 8.9208 15.7043 9.02429Z" fill="white"/>
<path d="M6.41249e-05 18.3276C0.00632409 20.3836 0.890104 22.374 2.50025 23.9583C4.11039 25.5426 6.34687 26.6224 8.82716 27.0131C11.3074 27.4037 13.8775 27.0809 16.0976 26.0999C18.3178 25.1189 20.0502 23.5405 20.9985 21.6349C21.9469 19.7292 22.0522 17.6146 21.2966 15.6527C20.5409 13.6908 18.9712 12.0035 16.8559 10.8794C14.7406 9.75536 12.2111 9.2643 9.70009 9.49026C7.18908 9.71622 4.85254 10.6452 3.09009 12.1182C1.09991 13.7784 -0.00971747 16.0082 6.41249e-05 18.3276ZM8.07481 16.5579C8.08743 16.1645 8.2251 15.7805 8.47442 15.4433C8.72374 15.1062 9.07618 14.8273 9.49736 14.6341C9.91855 14.4408 10.3941 14.3396 10.8776 14.3405C11.3612 14.3414 11.8362 14.4442 12.2563 14.639C12.6764 14.8339 13.0273 15.1139 13.2748 15.452C13.5223 15.7901 13.6578 16.1746 13.6683 16.568C13.6788 16.9614 13.5638 17.3504 13.3345 17.6968C13.1052 18.0433 12.7695 18.3355 12.3602 18.5449C12.228 18.612 12.1242 18.7105 12.0628 18.8271C12.0015 18.9436 11.9854 19.0727 12.0168 19.1969L12.8434 22.4154C12.8571 22.4618 12.8574 22.51 12.8445 22.5565C12.8316 22.603 12.8057 22.6465 12.7688 22.6835C12.7319 22.7205 12.685 22.7501 12.6318 22.7701C12.5786 22.79 12.5204 22.7996 12.4619 22.7983H9.27013C9.21158 22.7996 9.15344 22.79 9.10022 22.7701C9.04701 22.7501 9.00013 22.7205 8.96325 22.6835C8.92636 22.6465 8.90044 22.603 8.8875 22.5565C8.87457 22.51 8.87496 22.4618 8.88865 22.4154L9.7152 19.1969C9.74756 19.0712 9.73203 18.9404 9.67068 18.8221C9.60933 18.7037 9.50509 18.6034 9.37186 18.5345C9.03866 18.3647 8.7532 18.1396 8.53409 17.8739C8.31499 17.6082 8.16716 17.3079 8.10025 16.9926C8.07519 16.8486 8.06668 16.7031 8.07481 16.5579Z" fill="white"/>
</svg>
