<svg width="36" height="36" viewBox="0 0 36 36" fill="none" xmlns="http://www.w3.org/2000/svg">
<rect width="36" height="36" rx="8" fill="#F3F4F6"/>
<path d="M10.5 14.6667L17.075 19.0501C17.3489 19.2328 17.6708 19.3303 18 19.3303C18.3292 19.3303 18.6511 19.2328 18.925 19.0501L25.5 14.6667M12.1667 23.8334H23.8333C24.2754 23.8334 24.6993 23.6578 25.0118 23.3453C25.3244 23.0327 25.5 22.6088 25.5 22.1667V13.8334C25.5 13.3914 25.3244 12.9675 25.0118 12.6549C24.6993 12.3423 24.2754 12.1667 23.8333 12.1667H12.1667C11.7246 12.1667 11.3007 12.3423 10.9882 12.6549C10.6756 12.9675 10.5 13.3914 10.5 13.8334V22.1667C10.5 22.6088 10.6756 23.0327 10.9882 23.3453C11.3007 23.6578 11.7246 23.8334 12.1667 23.8334Z" stroke="#6B7280" stroke-width="1.66667" stroke-linecap="round" stroke-linejoin="round"/>
</svg>
