<svg width="16" height="16" viewBox="0 0 16 16" fill="none" xmlns="http://www.w3.org/2000/svg">
<path d="M11.7559 8.87354L7.5611 13.1823C7.38989 13.3581 7.30785 13.5633 7.31498 13.7978C7.32211 14.0323 7.41129 14.2375 7.5825 14.4133C7.75372 14.5745 7.95347 14.6588 8.18175 14.6661C8.41004 14.6735 8.60979 14.5892 8.781 14.4133L14.4311 8.60974C14.5167 8.5218 14.5773 8.42654 14.613 8.32395C14.6487 8.22136 14.6665 8.11145 14.6665 7.9942C14.6665 7.87696 14.6487 7.76704 14.613 7.66445C14.5773 7.56186 14.5167 7.4666 14.4311 7.37867L8.781 1.57507C8.62406 1.41386 8.42787 1.33325 8.19245 1.33325C7.95703 1.33325 7.75372 1.41386 7.5825 1.57507C7.41129 1.75094 7.32568 1.95978 7.32568 2.20159C7.32568 2.44341 7.41129 2.65225 7.5825 2.82812L11.7559 7.11487H2.18924C1.94669 7.11487 1.74337 7.19914 1.57929 7.36768C1.41521 7.53622 1.33317 7.74506 1.33317 7.9942C1.33317 8.24335 1.41521 8.45219 1.57929 8.62073C1.74337 8.78927 1.94669 8.87354 2.18924 8.87354H6.97255H11.7559Z" fill="#006820"/>
</svg>
