<svg width="36" height="36" viewBox="0 0 36 36" fill="none" xmlns="http://www.w3.org/2000/svg">
<rect width="36" height="36" rx="8" fill="#F3F4F6"/>
<path d="M22.714 21.8808L19.1782 25.4167C19.0235 25.5715 18.8399 25.6942 18.6378 25.778C18.4357 25.8618 18.219 25.9049 18.0002 25.9049C17.7814 25.9049 17.5648 25.8618 17.3627 25.778C17.1606 25.6942 16.977 25.5715 16.8223 25.4167L13.2865 21.8808C12.3542 20.9485 11.7193 19.7606 11.4621 18.4674C11.2049 17.1742 11.3369 15.8338 11.8415 14.6156C12.3461 13.3975 13.2006 12.3563 14.2969 11.6238C15.3932 10.8912 16.6821 10.5002 18.0007 10.5002C19.3192 10.5002 20.6081 10.8912 21.7044 11.6238C22.8007 12.3563 23.6552 13.3975 24.1598 14.6156C24.6644 15.8338 24.7965 17.1742 24.5392 18.4674C24.282 19.7606 23.6471 20.9485 22.7148 21.8808H22.714Z" stroke="#6B7280" stroke-width="1.66667" stroke-linecap="round" stroke-linejoin="round"/>
<path d="M20.5 17.1667C20.5 17.8298 20.2366 18.4657 19.7678 18.9345C19.2989 19.4034 18.663 19.6667 18 19.6667C17.337 19.6667 16.7011 19.4034 16.2322 18.9345C15.7634 18.4657 15.5 17.8298 15.5 17.1667C15.5 16.5037 15.7634 15.8678 16.2322 15.399C16.7011 14.9301 17.337 14.6667 18 14.6667C18.663 14.6667 19.2989 14.9301 19.7678 15.399C20.2366 15.8678 20.5 16.5037 20.5 17.1667Z" stroke="#6B7280" stroke-width="1.66667" stroke-linecap="round" stroke-linejoin="round"/>
</svg>
