<svg width="36" height="36" viewBox="0 0 36 36" fill="none" xmlns="http://www.w3.org/2000/svg">
<rect width="36" height="36" rx="8" fill="#F3F4F6"/>
<path d="M15.5003 18H20.5003M15.5003 21.3333H20.5003M22.167 25.5H13.8337C13.3916 25.5 12.9677 25.3244 12.6551 25.0118C12.3426 24.6993 12.167 24.2754 12.167 23.8333V12.1667C12.167 11.7246 12.3426 11.3007 12.6551 10.9882C12.9677 10.6756 13.3916 10.5 13.8337 10.5H18.4887C18.7097 10.5 18.9216 10.5879 19.0778 10.7442L23.5895 15.2558C23.7458 15.4121 23.8336 15.624 23.8337 15.845V23.8333C23.8337 24.2754 23.6581 24.6993 23.3455 25.0118C23.0329 25.3244 22.609 25.5 22.167 25.5Z" stroke="#6B7280" stroke-width="1.66667" stroke-linecap="round" stroke-linejoin="round"/>
</svg>
