<svg width="36" height="36" viewBox="0 0 36 36" fill="none" xmlns="http://www.w3.org/2000/svg">
<rect width="36" height="36" rx="8" fill="#F3F4F6"/>
<path d="M20.4997 22.1667H24.6663L23.4955 20.9958C23.3383 20.8386 23.2136 20.6519 23.1285 20.4464C23.0434 20.2409 22.9996 20.0207 22.9997 19.7983V17.1667C22.9998 16.1324 22.6793 15.1236 22.0824 14.2791C21.4854 13.4345 20.6413 12.7958 19.6663 12.4508V12.1667C19.6663 11.7246 19.4907 11.3007 19.1782 10.9882C18.8656 10.6756 18.4417 10.5 17.9997 10.5C17.5576 10.5 17.1337 10.6756 16.8212 10.9882C16.5086 11.3007 16.333 11.7246 16.333 12.1667V12.4508C14.3913 13.1375 12.9997 14.99 12.9997 17.1667V19.7992C12.9997 20.2475 12.8213 20.6783 12.5038 20.9958L11.333 22.1667H15.4997M20.4997 22.1667V23C20.4997 23.663 20.2363 24.2989 19.7674 24.7678C19.2986 25.2366 18.6627 25.5 17.9997 25.5C17.3366 25.5 16.7007 25.2366 16.2319 24.7678C15.7631 24.2989 15.4997 23.663 15.4997 23V22.1667M20.4997 22.1667H15.4997" stroke="#6B7280" stroke-width="1.66667" stroke-linecap="round" stroke-linejoin="round"/>
</svg>
