<svg width="20" height="20" viewBox="0 0 20 20" fill="none" xmlns="http://www.w3.org/2000/svg">
<path d="M2.5 8.33341H17.5M5.83333 12.5001H6.66667M10 12.5001H10.8333M5 15.8334H15C15.663 15.8334 16.2989 15.57 16.7678 15.1012C17.2366 14.6323 17.5 13.9965 17.5 13.3334V6.66675C17.5 6.00371 17.2366 5.36782 16.7678 4.89898C16.2989 4.43014 15.663 4.16675 15 4.16675H5C4.33696 4.16675 3.70107 4.43014 3.23223 4.89898C2.76339 5.36782 2.5 6.00371 2.5 6.66675V13.3334C2.5 13.9965 2.76339 14.6323 3.23223 15.1012C3.70107 15.57 4.33696 15.8334 5 15.8334Z" stroke="white" stroke-width="1.66667" stroke-linecap="round" stroke-linejoin="round"/>
</svg>
