<svg width="36" height="36" viewBox="0 0 36 36" fill="none" xmlns="http://www.w3.org/2000/svg">
<rect width="36" height="36" rx="8" fill="#F3F4F6"/>
<path d="M17.1662 12.9017V24.0333C17.166 24.3787 17.0439 24.7129 16.8214 24.9771C16.5989 25.2413 16.2903 25.4185 15.9499 25.4774C15.6096 25.5364 15.2594 25.4734 14.961 25.2994C14.6626 25.1255 14.4352 24.8518 14.3187 24.5267L12.5296 19.4017M12.5296 19.4017C11.8222 19.1009 11.2406 18.5659 10.8829 17.8856C10.5253 17.2052 10.4137 16.4222 10.567 15.6691C10.7203 14.9159 11.1291 14.2389 11.7243 13.7525C12.3194 13.2661 13.0643 13.0003 13.8329 13H15.3596C18.7762 13 21.7137 11.9717 22.9996 10.5V22.1667C21.7137 20.695 18.7771 19.6667 15.3596 19.6667H13.8329C13.3851 19.6673 12.9418 19.5766 12.5296 19.4017ZM22.9996 18.8333C23.6626 18.8333 24.2985 18.5699 24.7673 18.1011C25.2362 17.6323 25.4996 16.9964 25.4996 16.3333C25.4996 15.6703 25.2362 15.0344 24.7673 14.5656C24.2985 14.0967 23.6626 13.8333 22.9996 13.8333" stroke="#6B7280" stroke-width="1.66667" stroke-linecap="round" stroke-linejoin="round"/>
</svg>
