<svg width="36" height="36" viewBox="0 0 36 36" fill="none" xmlns="http://www.w3.org/2000/svg">
<rect width="36" height="36" rx="8" fill="#F3F4F6"/>
<g clip-path="url(#clip0_6905_8642)">
<path d="M22.4192 17.1919C23.4055 18.3548 23.9643 19.8201 24.0027 21.3444C24.0027 23.812 21.4922 25 18.3959 25C15.2996 25 12.7891 23.812 12.7891 21.3444C12.8289 19.8198 13.3885 18.3547 14.3753 17.1919" stroke="#6B7280" stroke-width="1.5" stroke-linecap="round" stroke-linejoin="round"/>
<path d="M19.2964 21.1001C19.0575 21.3391 18.7333 21.4734 18.3954 21.4734C18.0574 21.4734 17.7333 21.3391 17.4943 21.1001C17.2553 20.8612 17.1211 20.537 17.1211 20.1991C17.1211 19.8611 17.2553 19.537 17.4943 19.298C17.7333 19.0591 18.0574 18.9248 18.3954 18.9248C18.7333 18.9248 19.0575 19.0591 19.2964 19.298C19.5354 19.537 19.6697 19.8611 19.6697 20.1991C19.6697 20.537 19.5354 20.8612 19.2964 21.1001Z" stroke="#6B7280" stroke-width="1.5" stroke-linecap="round" stroke-linejoin="round"/>
<path d="M19.4894 14.7725C19.5372 14.8203 19.602 14.8471 19.6696 14.8471C19.7372 14.8471 19.802 14.8203 19.8498 14.7725C19.8976 14.7247 19.9245 14.6599 19.9245 14.5923C19.9245 14.5247 19.8976 14.4598 19.8498 14.412C19.802 14.3643 19.7372 14.3374 19.6696 14.3374C19.602 14.3374 19.5372 14.3643 19.4894 14.412C19.4416 14.4598 19.4148 14.5247 19.4148 14.5923C19.4148 14.6599 19.4416 14.7247 19.4894 14.7725Z" stroke="#6B7280" stroke-width="1.5"/>
<path d="M16.9409 14.7725C16.9887 14.8203 17.0535 14.8471 17.1211 14.8471C17.1887 14.8471 17.2535 14.8203 17.3013 14.7725C17.3491 14.7247 17.3759 14.6599 17.3759 14.5923C17.3759 14.5247 17.3491 14.4598 17.3013 14.412C17.2535 14.3643 17.1887 14.3374 17.1211 14.3374C17.0535 14.3374 16.9887 14.3643 16.9409 14.412C16.8931 14.4598 16.8662 14.5247 16.8662 14.5923C16.8662 14.6599 16.8931 14.7247 16.9409 14.7725Z" stroke="#6B7280" stroke-width="1.5"/>
<path d="M21.964 10.3339C21.9643 10.2239 21.9334 10.1161 21.875 10.023C21.8166 9.92983 21.733 9.85512 21.6339 9.80749C21.5348 9.75985 21.4242 9.74125 21.315 9.75382C21.2057 9.76639 21.1023 9.80962 21.0166 9.87852L19.9591 11.1379C19.4557 10.9658 18.928 10.8759 18.396 10.8714C17.8651 10.8767 17.3385 10.9671 16.8363 11.1392L15.7754 9.87852C15.6896 9.8099 15.5862 9.76691 15.4771 9.75448C15.368 9.74206 15.2575 9.76071 15.1585 9.80829C15.0595 9.85587 14.976 9.93045 14.9175 10.0234C14.859 10.1164 14.828 10.224 14.828 10.3339C14.828 15.3671 13.8086 12.0961 13.8086 15.8265C13.8086 17.758 16.3572 18.3751 18.396 18.3751C20.4349 18.3751 22.9834 17.758 22.9834 15.8265C22.9834 12.1036 21.964 15.3569 21.964 10.3339Z" stroke="#6B7280" stroke-width="1.5" stroke-linecap="round" stroke-linejoin="round"/>
<path d="M14.1671 13.7394C13.8642 13.4878 13.4963 13.3272 13.1059 13.276C12.7154 13.2248 12.3185 13.2852 11.961 13.4503C11.6035 13.6153 11.3 13.8782 11.0857 14.2085C10.8714 14.5388 10.755 14.9231 10.75 15.3168V16.8459C10.792 17.5076 11.0282 18.1423 11.429 18.6704C11.8299 19.1985 12.3776 19.5967 13.0036 19.8152M22.6093 17.4182C23.0393 17.3652 23.4756 17.4042 23.8894 17.5326C24.3031 17.661 24.6849 17.8758 25.0094 18.1628C25.3338 18.4498 25.5937 18.8025 25.7716 19.1975C25.9495 19.5925 26.0415 20.0208 26.0414 20.454V21.9431C26.0414 22.3486 25.8803 22.7376 25.5935 23.0243C25.3067 23.3111 24.9178 23.4722 24.5122 23.4722H23.1605" stroke="#6B7280" stroke-width="1.5" stroke-linecap="round" stroke-linejoin="round"/>
</g>
<defs>
<clipPath id="clip0_6905_8642">
<rect width="20" height="20" fill="white" transform="translate(8 8)"/>
</clipPath>
</defs>
</svg>
