<svg width="36" height="36" viewBox="0 0 36 36" fill="none" xmlns="http://www.w3.org/2000/svg">
<rect width="36" height="36" rx="8" fill="#F3F4F6"/>
<path d="M18 9.875C13.52 9.875 9.875 13.52 9.875 18C9.875 22.48 13.52 26.125 18 26.125C22.48 26.125 26.125 22.48 26.125 18C26.125 13.52 22.48 9.875 18 9.875ZM18 11.125C18.3763 11.125 18.735 11.1644 19.0938 11.2225L18 12.0038L16.9062 11.2225C17.2677 11.1609 17.6334 11.1283 18 11.125ZM15.3825 11.6525L17.6287 13.2931L18 13.5663L18.3713 13.2931L20.6169 11.6525C21.6081 12.0631 22.4906 12.6981 23.195 13.5075L22.3356 16.1838L22.1994 16.6131L22.57 16.8669L24.8356 18.5275C24.7574 19.5972 24.4299 20.6338 23.8794 21.5544H20.5781L20.4412 21.9844L19.5625 24.6994C18.5141 24.9398 17.4241 24.9332 16.3787 24.68L15.5194 22.0037L15.3825 21.5744H12.1219C11.575 20.6756 11.25 19.6381 11.1644 18.5275L13.4106 16.8869L13.7819 16.6331L13.645 16.2031L12.7662 13.5469C13.4759 12.7164 14.3731 12.0671 15.3837 11.6525H15.3825ZM18 14.3088L17.6287 14.5819L14.7775 16.6525L14.4256 16.9256L14.5625 17.3556L15.6562 20.6956L15.7931 21.125H20.2069L20.3438 20.695L21.4375 17.3556L21.5744 16.9256L21.2225 16.6525L18.3713 14.5819L18 14.3088ZM24.0938 14.8162C24.4363 15.4838 24.6673 16.2029 24.7775 16.945L23.6637 16.145L24.0938 14.8162ZM11.8869 14.8556L12.3163 16.1444L11.2225 16.945C11.33 16.2174 11.5545 15.512 11.8875 14.8563L11.8869 14.8556ZM18 15.8713L20.1094 17.3944L19.3088 19.875H16.6912L15.8906 17.3944L18 15.8713ZM21.4963 22.805H22.9025C22.3712 23.3549 21.7502 23.8106 21.0662 24.1525L21.4963 22.805ZM13.0975 22.8238H14.465L14.8944 24.1331C14.2284 23.7972 13.6215 23.3546 13.0975 22.8238Z" fill="#6B7280"/>
</svg>
