<svg width="20" height="20" viewBox="0 0 20 20" fill="none" xmlns="http://www.w3.org/2000/svg">
<path d="M9.16667 6.66671L5.83333 10L9.16667 13.3334M5.83333 10H17.5M13.3333 13.3334V14.1667C13.3333 14.8297 13.0699 15.4656 12.6011 15.9345C12.1323 16.4033 11.4964 16.6667 10.8333 16.6667H5C4.33696 16.6667 3.70107 16.4033 3.23223 15.9345C2.76339 15.4656 2.5 14.8297 2.5 14.1667V5.83337C2.5 5.17033 2.76339 4.53445 3.23223 4.06561C3.70107 3.59677 4.33696 3.33337 5 3.33337H10.8333C11.4964 3.33337 12.1323 3.59677 12.6011 4.06561C13.0699 4.53445 13.3333 5.17033 13.3333 5.83337V6.66671" stroke="white" stroke-width="1.66667" stroke-linecap="round" stroke-linejoin="round"/>
</svg>
