<svg width="36" height="36" viewBox="0 0 36 36" fill="none" xmlns="http://www.w3.org/2000/svg">
<rect width="36" height="36" rx="8" fill="#F3F4F6"/>
<path d="M14.8567 15.5C15.3142 14.5292 16.5483 13.8333 18 13.8333C19.8417 13.8333 21.3333 14.9525 21.3333 16.3333C21.3333 17.5 20.2683 18.4792 18.8283 18.7558C18.3767 18.8425 18 19.2058 18 19.6667M18 22.1667H18.0083M25.5 18C25.5 18.9849 25.306 19.9602 24.9291 20.8701C24.5522 21.7801 23.9997 22.6069 23.3033 23.3033C22.6069 23.9997 21.7801 24.5522 20.8701 24.9291C19.9602 25.306 18.9849 25.5 18 25.5C17.0151 25.5 16.0398 25.306 15.1299 24.9291C14.2199 24.5522 13.3931 23.9997 12.6967 23.3033C12.0003 22.6069 11.4478 21.7801 11.0709 20.8701C10.694 19.9602 10.5 18.9849 10.5 18C10.5 16.0109 11.2902 14.1032 12.6967 12.6967C14.1032 11.2902 16.0109 10.5 18 10.5C19.9891 10.5 21.8968 11.2902 23.3033 12.6967C24.7098 14.1032 25.5 16.0109 25.5 18Z" stroke="#6B7280" stroke-width="1.66667" stroke-linecap="round" stroke-linejoin="round"/>
</svg>
